<svg xmlns="http://www.w3.org/2000/svg" xmlns:xlink="http://www.w3.org/1999/xlink" xmlns:lucid="lucid" width="2881.92" height="2194.41"><g transform="translate(1838.864933968755 2140)" lucid:page-tab-id="0_0"><path d="M-1806.87-2517.67h3677.74V64h-3677.74z" fill="#fff"/><path d="M-1727.57-44.93a6 6 0 0 1 6-6h19.8a6 6 0 0 1 6 6v68a6 6 0 0 1-6 6h-19.8a6 6 0 0 1-6-6z" stroke="#5e5e5e" stroke-width="3" fill-opacity="0"/><use xlink:href="#a" transform="matrix(1,0,0,1,-1719.5667168488626,-42.92591346947245) translate(-37.03086419753087 17.77777777777778)"/><use xlink:href="#b" transform="matrix(1,0,0,1,-1719.5667168488626,-42.92591346947245) translate(-4.345679012345679 44.44444444444444)"/><use xlink:href="#c" transform="matrix(1,0,0,1,-1719.5667168488626,-42.92591346947245) translate(-25.30246913580247 71.11111111111111)"/><path d="M-1660.05 12.6h16.1v4.86h-16.1z" fill="none"/><path d="M-1669.9-47.63c0-.75.6-1.35 1.36-1.35.75 0 1.36.6 1.36 1.35 0 .75-.6 1.36-1.36 1.36-.75 0-1.35-.6-1.35-1.36z" stroke="#5e5e5e" stroke-width="3" fill="#fff"/><path d="M-1668.54-48.98v-1.9a7.7 7.7 0 0 1 .88-3.58l1.4-2.65m-2.28 4.32l-2.27-4.33m0 6.76h4.53" stroke="#5e5e5e" stroke-width="3" fill="none"/><path d="M-1670.8-44a2.27 2.27 0 0 1 2.26-2.27 2.27 2.27 0 0 1 2.27 2.27v6.62a2.27 2.27 0 0 1-2.27 2.27 2.27 2.27 0 0 1-2.27-2.28z" fill="none"/><use xlink:href="#d" transform="matrix(1,0,0,1,-1750.8074548799764,-57.11195998110007) translate(33.117283950617285 17.77777777777778)"/><path d="M-1754.23-43.3c0-.95.76-1.7 1.7-1.7.92 0 1.68.75 1.68 1.7 0 .92-.76 1.68-1.7 1.68-.92 0-1.68-.76-1.68-1.7z" stroke="#5e5e5e" stroke-width="3" fill="#fff"/><path d="M-1752.54-45v-2.37a11.74 11.74 0 0 1 .92-4.54l1.35-3.24m-2.27 5.4l-2.27-5.4m0 8.45h4.53" stroke="#5e5e5e" stroke-width="3" fill="none"/><path d="M-1754.8-39.35a2.27 2.27 0 0 1 2.26-2.27 2.27 2.27 0 0 1 2.27 2.27v3.94a2.27 2.27 0 0 1-2.27 2.26 2.27 2.27 0 0 1-2.27-2.27z" fill="none"/><use xlink:href="#e" transform="matrix(1,0,0,1,-1834.8111625939234,-55.13967168980589) translate(50.46296296296296 17.77777777777778)"/><path d="M-1704.86-40.7c0 2.58-3.05 4.66-6.8 4.66-3.78 0-6.83-2.08-6.83-4.65 0-2.56 3.06-4.64 6.83-4.64 3.76 0 6.8 2.08 6.8 4.65zM-1704.86-22.1c0 2.58-3.05 4.66-6.8 4.66-3.78 0-6.83-2.08-6.83-4.65 0-2.56 3.06-4.64 6.83-4.64 3.76 0 6.8 2.08 6.8 4.65zM-1704.86.24c0 2.57-3.05 4.65-6.8 4.65-3.78 0-6.83-2.1-6.83-4.66 0-2.57 3.06-4.65 6.83-4.65 3.76 0 6.8 2.07 6.8 4.64z" stroke="#5e5e5e" stroke-width="3" fill="#fff"/><path d="M-1721-39.7l-25.48.03h-.07l-.1.05-.08.05-.08.07-.07.08-.06.1-.04.08-.02.1v.16l-.02.66-.1.37-.12.33-.2.3-.22.28-.27.23-.3.17-.34.14-.34.1-.3.02-.15-2h.12l.04-.02h.05l.04-.04.02-.02.03-.03.02-.03v-.04h.02v-.52l.03-.35.1-.4.16-.4.2-.35.28-.32.3-.27.37-.2.38-.17.45-.1 25.72-.02z" stroke="#5e5e5e" stroke-width=".05" fill="#5e5e5e"/><path d="M-1749.24-36.38h-4.03v-2h4.03z" fill="#5e5e5e"/><path d="M-1749.22-36.36h-4.08v-2.05h4.08zm-4.03-2v1.95h3.98v-1.96z" stroke="#5e5e5e" stroke-width=".05" fill="#5e5e5e"/><path d="M-1720.02-40.84l.16 1.15h-1.17v-2h1.3z" fill="#5e5e5e"/><path d="M-1720-40.84l.17 1.17h-1.22v-2.05h1.36zm-1-.83v1.95h1.1l-.15-1.13.3-.82z" stroke="#5e5e5e" stroke-width=".05" fill="#5e5e5e"/><path d="M-1749.6-22.75c0-.87.72-1.58 1.6-1.58.88 0 1.6.7 1.6 1.58 0 .88-.72 1.6-1.6 1.6-.88 0-1.6-.72-1.6-1.6z" stroke="#5e5e5e" stroke-width="3" fill="#fff"/><path d="M-1748-24.33v-2.22a10.42 10.42 0 0 1 .9-4.26l1.37-3.06m-2.27 5.08l-2.27-5.08m0 7.94h4.54" stroke="#5e5e5e" stroke-width="3" fill="none"/><path d="M-1750.27-18.9a2.27 2.27 0 0 1 2.27-2.26 2.27 2.27 0 0 1 2.27 2.27v4.77a2.27 2.27 0 0 1-2.27 2.27 2.27 2.27 0 0 1-2.27-2.27z" fill="none"/><use xlink:href="#f" transform="matrix(1,0,0,1,-1830.270421636413,-33.85614602761207) translate(31.975308641975303 17.77777777777778)"/><path d="M-1746.47-4.82l.05.54h-2l-.05-.47v-.52h2z" stroke="#5e5e5e" stroke-width=".05" fill="#5e5e5e"/><path stroke="#5e5e5e" stroke-width=".05" fill="#5e5e5e"/><path fill="#5e5e5e"/><path stroke="#5e5e5e" stroke-width=".05" fill="#5e5e5e"/><path d="M-1671.8-40.7h-30.55" stroke="#5e5e5e" stroke-width="2" fill="none"/><path d="M-1667.8-39.7h-4.03v-2h4.02zM-1702.32-39.7h-1.3l.3-.84-.17-1.15h1.18zM-1755.53-80.94l.72.17.68.28.63.4.58.48.48.57.4.63.27.7.17.7.06.7V-41h-2v-35.23l-.04-.47-.1-.4-.16-.4-.22-.37-.28-.33-.33-.28-.36-.22-.4-.16-.4-.1-.44-.04-.43.04-.4.1-.4.16-.37.22-.33.28-.28.33-.22.36-.16.4-.1.36-.04 48.6.06.83.17.7h-2.05l-.1-.4-.08-1.05.05-48.92.18-.76.28-.7.4-.62.48-.57.57-.48.63-.4.7-.27.7-.17.75-.06z" stroke="#5e5e5e" stroke-width=".05" fill="#5e5e5e"/><path d="M-1751.54-37h-2v-4.03h2z" stroke="#5e5e5e" stroke-width=".05" fill="#5e5e5e"/><path fill="#5e5e5e"/><path stroke="#5e5e5e" stroke-width=".05" fill="#5e5e5e"/><path d="M-1710.67-33.54h-2v-1h2z" stroke="#5e5e5e" stroke-width=".05" fill="#5e5e5e"/><path d="M-1711.75-34.53l1.08-.07v1.1h-2v-1.18z" fill="#5e5e5e"/><path d="M-1711.74-34.56l1.1-.07v1.14h-2.06v-1.2zm-.9 1.02h1.94v-1.04l-1.05.07-.9-.16z" stroke="#5e5e5e" stroke-width=".05" fill="#5e5e5e"/><path d="M-1711.67-31.48l-4.64-14.26h9.26z" fill="#5e5e5e"/><path d="M-1711.67-28.24l-6.02-18.5h12.04zm-3.26-16.5l3.26 10.02 3.25-10.02z" stroke="#5e5e5e" stroke-width=".05" fill="#5e5e5e"/><use xlink:href="#g" transform="matrix(1,0,0,1,-1827.864933968755,-38.90975676020308) translate(0 14.222222222222223)"/><path stroke="#5e5e5e" stroke-width=".05" fill="#5e5e5e"/><path fill="#5e5e5e"/><path stroke="#5e5e5e" stroke-width=".05" fill="#5e5e5e"/><path fill="#5e5e5e"/><path stroke="#5e5e5e" stroke-width=".05" fill="#5e5e5e"/><use xlink:href="#g" transform="matrix(1,0,0,1,-1763.451901275353,-26.600984550965393) translate(0 14.222222222222223)"/><path stroke="#5e5e5e" stroke-width=".05" fill="#5e5e5e"/><path fill="#5e5e5e"/><path stroke="#5e5e5e" stroke-width=".05" fill="#5e5e5e"/><path d="M-1707.2-4.28h-8.93l-.18-.53h9.26z" fill="#5e5e5e"/><path d="M-1706.16-4.28h-11.03l-.3-1h11.66z" stroke="#5e5e5e" stroke-width=".05" fill="#5e5e5e"/><use xlink:href="#h" transform="matrix(1,0,0,1,-1763.451901275353,-4.275403155616924) translate(0 14.222222222222223)"/><path d="M-1704.86 18.84c0 2.57-3.05 4.65-6.8 4.65-3.78 0-6.83-2.1-6.83-4.66 0-2.57 3.06-4.65 6.83-4.65 3.76 0 6.8 2.07 6.8 4.64zM-1670.12-12.4c0-.88.7-1.6 1.58-1.6.88 0 1.6.72 1.6 1.6 0 .87-.72 1.58-1.6 1.58-.87 0-1.58-.7-1.58-1.58z" stroke="#5e5e5e" stroke-width="3" fill="#fff"/><path d="M-1668.54-14v-2.2a10.42 10.42 0 0 1 .9-4.26l1.37-3.05m-2.27 5.06l-2.27-5.07m0 7.92h4.53" stroke="#5e5e5e" stroke-width="3" fill="none"/><path d="M-1670.8-8.55a2.27 2.27 0 0 1 2.26-2.27 2.27 2.27 0 0 1 2.27 2.27v4.77a2.27 2.27 0 0 1-2.27 2.27 2.27 2.27 0 0 1-2.27-2.28z" fill="none"/><use xlink:href="#i" transform="matrix(1,0,0,1,-1750.8074548799764,-23.5142996062768) translate(45.52469135802469 17.77777777777778)"/><path d="M-1670.12 17.8l-.83.7-.94.58-1 .42-1.1.27-28.35.07v-2l28.1-.07.73-.18.72-.3.38-.24h2.93zm2.05-22.08h-2v-1h2z" stroke="#5e5e5e" stroke-width=".05" fill="#5e5e5e"/><path stroke="#5e5e5e" stroke-width=".05" fill="#5e5e5e"/><path d="M-1702.32 19.84h-1.3l.3-.85-.17-1.16h1.18z" fill="#5e5e5e"/><path d="M-1702.3 19.87h-1.36l.3-.88-.16-1.18h1.22zm-1.16-2l.16 1.12-.3.82h1.25v-1.95z" stroke="#5e5e5e" stroke-width=".05" fill="#5e5e5e"/><path d="M-1060-1511.57a6 6 0 0 1 6-6h271.05a6 6 0 0 1 6 6v276a6 6 0 0 1-6 6H-1054a6 6 0 0 1-6-6z" stroke="#5e5e5e" stroke-width="3" fill="#fff"/><path d="M-1060-1474.9h283.05m-283.05 96h283.05" stroke="#5e5e5e" stroke-width="3" fill="none"/><use xlink:href="#j" transform="matrix(1,0,0,1,-1052,-1509.5676158369984) translate(101.96296296296296 17.944444444444443)"/><use xlink:href="#k" transform="matrix(1,0,0,1,-1048,-1466.9009491703316) translate(0 17.77777777777778)"/><use xlink:href="#l" transform="matrix(1,0,0,1,-1048,-1466.9009491703316) translate(19.1358024691358 17.77777777777778)"/><use xlink:href="#m" transform="matrix(1,0,0,1,-1048,-1466.9009491703316) translate(80.80246913580247 17.77777777777778)"/><use xlink:href="#n" transform="matrix(1,0,0,1,-1048,-1466.9009491703316) translate(93.14814814814815 17.77777777777778)"/><use xlink:href="#o" transform="matrix(1,0,0,1,-1048,-1466.9009491703316) translate(0 44.44444444444444)"/><use xlink:href="#p" transform="matrix(1,0,0,1,-1048,-1466.9009491703316) translate(13.518518518518519 44.44444444444444)"/><use xlink:href="#q" transform="matrix(1,0,0,1,-1048,-1466.9009491703316) translate(98.64197530864197 44.44444444444444)"/><use xlink:href="#n" transform="matrix(1,0,0,1,-1048,-1466.9009491703316) translate(117.1604938271605 44.44444444444444)"/><use xlink:href="#o" transform="matrix(1,0,0,1,-1048,-1466.9009491703316) translate(0 71.11111111111111)"/><use xlink:href="#r" transform="matrix(1,0,0,1,-1048,-1466.9009491703316) translate(13.518518518518519 71.11111111111111)"/><use xlink:href="#m" transform="matrix(1,0,0,1,-1048,-1466.9009491703316) translate(112.22222222222223 71.11111111111111)"/><use xlink:href="#s" transform="matrix(1,0,0,1,-1048,-1466.9009491703316) translate(124.56790123456791 71.11111111111111)"/><use xlink:href="#k" transform="matrix(1,0,0,1,-1048,-1370.9009491703316) translate(0 18.111111111111107)"/><use xlink:href="#t" transform="matrix(1,0,0,1,-1048,-1370.9009491703316) translate(19.1358024691358 18.111111111111107)"/><use xlink:href="#m" transform="matrix(1,0,0,1,-1048,-1370.9009491703316) translate(149.81481481481484 18.111111111111107)"/><use xlink:href="#n" transform="matrix(1,0,0,1,-1048,-1370.9009491703316) translate(162.1604938271605 18.111111111111107)"/><use xlink:href="#k" transform="matrix(1,0,0,1,-1048,-1370.9009491703316) translate(0 44.77777777777777)"/><use xlink:href="#u" transform="matrix(1,0,0,1,-1048,-1370.9009491703316) translate(19.1358024691358 44.77777777777777)"/><use xlink:href="#m" transform="matrix(1,0,0,1,-1048,-1370.9009491703316) translate(163.39506172839506 44.77777777777777)"/><use xlink:href="#n" transform="matrix(1,0,0,1,-1048,-1370.9009491703316) translate(175.74074074074073 44.77777777777777)"/><use xlink:href="#k" transform="matrix(1,0,0,1,-1048,-1370.9009491703316) translate(0 71.44444444444444)"/><use xlink:href="#v" transform="matrix(1,0,0,1,-1048,-1370.9009491703316) translate(19.1358024691358 71.44444444444444)"/><use xlink:href="#w" transform="matrix(1,0,0,1,-1048,-1370.9009491703316) translate(219.93827160493822 71.44444444444444)"/><use xlink:href="#n" transform="matrix(1,0,0,1,-1048,-1370.9009491703316) translate(0 98.11111111111111)"/><use xlink:href="#k" transform="matrix(1,0,0,1,-1048,-1370.9009491703316) translate(0 124.77777777777777)"/><use xlink:href="#x" transform="matrix(1,0,0,1,-1048,-1370.9009491703316) translate(19.1358024691358 124.77777777777777)"/><use xlink:href="#m" transform="matrix(1,0,0,1,-1048,-1370.9009491703316) translate(165.74074074074073 124.77777777777777)"/><use xlink:href="#s" transform="matrix(1,0,0,1,-1048,-1370.9009491703316) translate(178.0864197530864 124.77777777777777)"/><path d="M-147.94-2114a6 6 0 0 1 6-6H129.1a6 6 0 0 1 6 6v276a6 6 0 0 1-6 6h-271.04a6 6 0 0 1-6-6z" stroke="#5e5e5e" stroke-width="3" fill="#fff"/><path d="M-147.94-2077.33H135.1m-283.04 96H135.1" stroke="#5e5e5e" stroke-width="3" fill="none"/><use xlink:href="#y" transform="matrix(1,0,0,1,-139.93893129771,-2112) translate(108.10493827160494 17.944444444444443)"/><use xlink:href="#k" transform="matrix(1,0,0,1,-135.93893129771,-2069.3333333333335) translate(0 17.77777777777778)"/><use xlink:href="#l" transform="matrix(1,0,0,1,-135.93893129771,-2069.3333333333335) translate(19.1358024691358 17.77777777777778)"/><use xlink:href="#m" transform="matrix(1,0,0,1,-135.93893129771,-2069.3333333333335) translate(80.80246913580247 17.77777777777778)"/><use xlink:href="#n" transform="matrix(1,0,0,1,-135.93893129771,-2069.3333333333335) translate(93.14814814814815 17.77777777777778)"/><use xlink:href="#o" transform="matrix(1,0,0,1,-135.93893129771,-2069.3333333333335) translate(0 44.44444444444444)"/><use xlink:href="#p" transform="matrix(1,0,0,1,-135.93893129771,-2069.3333333333335) translate(13.518518518518519 44.44444444444444)"/><use xlink:href="#m" transform="matrix(1,0,0,1,-135.93893129771,-2069.3333333333335) translate(98.64197530864197 44.44444444444444)"/><use xlink:href="#z" transform="matrix(1,0,0,1,-135.93893129771,-2069.3333333333335) translate(110.98765432098766 44.44444444444444)"/><use xlink:href="#o" transform="matrix(1,0,0,1,-135.93893129771,-2069.3333333333335) translate(0 71.11111111111111)"/><use xlink:href="#r" transform="matrix(1,0,0,1,-135.93893129771,-2069.3333333333335) translate(13.518518518518519 71.11111111111111)"/><use xlink:href="#m" transform="matrix(1,0,0,1,-135.93893129771,-2069.3333333333335) translate(112.22222222222223 71.11111111111111)"/><use xlink:href="#s" transform="matrix(1,0,0,1,-135.93893129771,-2069.3333333333335) translate(124.56790123456791 71.11111111111111)"/><use xlink:href="#k" transform="matrix(1,0,0,1,-135.93893129771,-1973.3333333333335) translate(0 18.111111111111107)"/><use xlink:href="#t" transform="matrix(1,0,0,1,-135.93893129771,-1973.3333333333335) translate(19.1358024691358 18.111111111111107)"/><use xlink:href="#m" transform="matrix(1,0,0,1,-135.93893129771,-1973.3333333333335) translate(149.81481481481484 18.111111111111107)"/><use xlink:href="#n" transform="matrix(1,0,0,1,-135.93893129771,-1973.3333333333335) translate(162.1604938271605 18.111111111111107)"/><use xlink:href="#k" transform="matrix(1,0,0,1,-135.93893129771,-1973.3333333333335) translate(0 44.77777777777777)"/><use xlink:href="#u" transform="matrix(1,0,0,1,-135.93893129771,-1973.3333333333335) translate(19.1358024691358 44.77777777777777)"/><use xlink:href="#m" transform="matrix(1,0,0,1,-135.93893129771,-1973.3333333333335) translate(163.39506172839506 44.77777777777777)"/><use xlink:href="#n" transform="matrix(1,0,0,1,-135.93893129771,-1973.3333333333335) translate(175.74074074074073 44.77777777777777)"/><use xlink:href="#k" transform="matrix(1,0,0,1,-135.93893129771,-1973.3333333333335) translate(0 71.44444444444444)"/><use xlink:href="#A" transform="matrix(1,0,0,1,-135.93893129771,-1973.3333333333335) translate(19.1358024691358 71.44444444444444)"/><use xlink:href="#w" transform="matrix(1,0,0,1,-135.93893129771,-1973.3333333333335) translate(224.81481481481475 71.44444444444444)"/><use xlink:href="#n" transform="matrix(1,0,0,1,-135.93893129771,-1973.3333333333335) translate(0 98.11111111111111)"/><use xlink:href="#k" transform="matrix(1,0,0,1,-135.93893129771,-1973.3333333333335) translate(0 124.77777777777777)"/><use xlink:href="#B" transform="matrix(1,0,0,1,-135.93893129771,-1973.3333333333335) translate(19.1358024691358 124.77777777777777)"/><use xlink:href="#m" transform="matrix(1,0,0,1,-135.93893129771,-1973.3333333333335) translate(174.44444444444443 124.77777777777777)"/><use xlink:href="#s" transform="matrix(1,0,0,1,-135.93893129771,-1973.3333333333335) translate(186.7901234567901 124.77777777777777)"/><path d="M-147.94-936.52a6 6 0 0 1 6-6H129.1a6 6 0 0 1 6 6v329a6 6 0 0 1-6 6h-271.04a6 6 0 0 1-6-6z" stroke="#5e5e5e" stroke-width="3" fill="#fff"/><path d="M-147.94-899.85H135.1m-283.04 96H135.1" stroke="#5e5e5e" stroke-width="3" fill="none"/><use xlink:href="#C" transform="matrix(1,0,0,1,-139.93893129771004,-934.5185218632234) translate(83.4753086419753 17.944444444444443)"/><use xlink:href="#k" transform="matrix(1,0,0,1,-135.93893129771004,-891.8518551965568) translate(0 17.77777777777778)"/><use xlink:href="#l" transform="matrix(1,0,0,1,-135.93893129771004,-891.8518551965568) translate(19.1358024691358 17.77777777777778)"/><use xlink:href="#m" transform="matrix(1,0,0,1,-135.93893129771004,-891.8518551965568) translate(80.80246913580247 17.77777777777778)"/><use xlink:href="#n" transform="matrix(1,0,0,1,-135.93893129771004,-891.8518551965568) translate(93.14814814814815 17.77777777777778)"/><use xlink:href="#o" transform="matrix(1,0,0,1,-135.93893129771004,-891.8518551965568) translate(0 44.44444444444444)"/><use xlink:href="#p" transform="matrix(1,0,0,1,-135.93893129771004,-891.8518551965568) translate(13.518518518518519 44.44444444444444)"/><use xlink:href="#m" transform="matrix(1,0,0,1,-135.93893129771004,-891.8518551965568) translate(98.64197530864197 44.44444444444444)"/><use xlink:href="#z" transform="matrix(1,0,0,1,-135.93893129771004,-891.8518551965568) translate(110.98765432098766 44.44444444444444)"/><use xlink:href="#o" transform="matrix(1,0,0,1,-135.93893129771004,-891.8518551965568) translate(0 71.11111111111111)"/><use xlink:href="#r" transform="matrix(1,0,0,1,-135.93893129771004,-891.8518551965568) translate(13.518518518518519 71.11111111111111)"/><use xlink:href="#m" transform="matrix(1,0,0,1,-135.93893129771004,-891.8518551965568) translate(112.22222222222223 71.11111111111111)"/><use xlink:href="#s" transform="matrix(1,0,0,1,-135.93893129771004,-891.8518551965568) translate(124.56790123456791 71.11111111111111)"/><g><use xlink:href="#k" transform="matrix(1,0,0,1,-135.93893129771004,-795.8518551965568) translate(0 17.94444444444445)"/><use xlink:href="#t" transform="matrix(1,0,0,1,-135.93893129771004,-795.8518551965568) translate(19.1358024691358 17.94444444444445)"/><use xlink:href="#m" transform="matrix(1,0,0,1,-135.93893129771004,-795.8518551965568) translate(149.81481481481484 17.94444444444445)"/><use xlink:href="#n" transform="matrix(1,0,0,1,-135.93893129771004,-795.8518551965568) translate(162.1604938271605 17.94444444444445)"/><use xlink:href="#k" transform="matrix(1,0,0,1,-135.93893129771004,-795.8518551965568) translate(0 44.611111111111114)"/><use xlink:href="#u" transform="matrix(1,0,0,1,-135.93893129771004,-795.8518551965568) translate(19.1358024691358 44.611111111111114)"/><use xlink:href="#m" transform="matrix(1,0,0,1,-135.93893129771004,-795.8518551965568) translate(163.39506172839506 44.611111111111114)"/><use xlink:href="#n" transform="matrix(1,0,0,1,-135.93893129771004,-795.8518551965568) translate(175.74074074074073 44.611111111111114)"/><use xlink:href="#k" transform="matrix(1,0,0,1,-135.93893129771004,-795.8518551965568) translate(0 71.27777777777779)"/><use xlink:href="#D" transform="matrix(1,0,0,1,-135.93893129771004,-795.8518551965568) translate(19.1358024691358 71.27777777777779)"/><use xlink:href="#m" transform="matrix(1,0,0,1,-135.93893129771004,-795.8518551965568) translate(192.90123456790118 71.27777777777779)"/><use xlink:href="#E" transform="matrix(1,0,0,1,-135.93893129771004,-795.8518551965568) translate(205.24691358024685 71.27777777777779)"/><use xlink:href="#k" transform="matrix(1,0,0,1,-135.93893129771004,-795.8518551965568) translate(0 97.94444444444446)"/><use xlink:href="#F" transform="matrix(1,0,0,1,-135.93893129771004,-795.8518551965568) translate(19.1358024691358 97.94444444444446)"/><use xlink:href="#m" transform="matrix(1,0,0,1,-135.93893129771004,-795.8518551965568) translate(195.3086419753086 97.94444444444446)"/><use xlink:href="#E" transform="matrix(1,0,0,1,-135.93893129771004,-795.8518551965568) translate(207.65432098765427 97.94444444444446)"/><use xlink:href="#G" transform="matrix(1,0,0,1,-135.93893129771004,-795.8518551965568) translate(0 124.61111111111111)"/><use xlink:href="#H" transform="matrix(1,0,0,1,-135.93893129771004,-795.8518551965568) translate(0 151.27777777777777)"/><use xlink:href="#w" transform="matrix(1,0,0,1,-135.93893129771004,-795.8518551965568) translate(0 177.94444444444446)"/></g><path d="M740-1529.97a6 6 0 0 1 6-6h271.05a6 6 0 0 1 6 6v329a6 6 0 0 1-6 6H746a6 6 0 0 1-6-6z" stroke="#5e5e5e" stroke-width="3" fill="#fff"/><path d="M740-1493.3h283.05m-283.05 96h283.05" stroke="#5e5e5e" stroke-width="3" fill="none"/><g><use xlink:href="#I" transform="matrix(1,0,0,1,748,-1527.9657320163976) translate(97.02469135802468 17.944444444444443)"/></g><g><use xlink:href="#k" transform="matrix(1,0,0,1,752,-1485.2990653497309) translate(0 17.77777777777778)"/><use xlink:href="#l" transform="matrix(1,0,0,1,752,-1485.2990653497309) translate(19.1358024691358 17.77777777777778)"/><use xlink:href="#m" transform="matrix(1,0,0,1,752,-1485.2990653497309) translate(80.80246913580247 17.77777777777778)"/><use xlink:href="#n" transform="matrix(1,0,0,1,752,-1485.2990653497309) translate(93.14814814814815 17.77777777777778)"/><use xlink:href="#o" transform="matrix(1,0,0,1,752,-1485.2990653497309) translate(0 44.44444444444444)"/><use xlink:href="#p" transform="matrix(1,0,0,1,752,-1485.2990653497309) translate(13.518518518518519 44.44444444444444)"/><use xlink:href="#m" transform="matrix(1,0,0,1,752,-1485.2990653497309) translate(98.64197530864197 44.44444444444444)"/><use xlink:href="#z" transform="matrix(1,0,0,1,752,-1485.2990653497309) translate(110.98765432098766 44.44444444444444)"/><use xlink:href="#o" transform="matrix(1,0,0,1,752,-1485.2990653497309) translate(0 71.11111111111111)"/><use xlink:href="#r" transform="matrix(1,0,0,1,752,-1485.2990653497309) translate(13.518518518518519 71.11111111111111)"/><use xlink:href="#m" transform="matrix(1,0,0,1,752,-1485.2990653497309) translate(112.22222222222223 71.11111111111111)"/><use xlink:href="#s" transform="matrix(1,0,0,1,752,-1485.2990653497309) translate(124.56790123456791 71.11111111111111)"/></g><g><use xlink:href="#k" transform="matrix(1,0,0,1,752,-1389.2990653497309) translate(0 17.94444444444445)"/><use xlink:href="#t" transform="matrix(1,0,0,1,752,-1389.2990653497309) translate(19.1358024691358 17.94444444444445)"/><use xlink:href="#m" transform="matrix(1,0,0,1,752,-1389.2990653497309) translate(149.81481481481484 17.94444444444445)"/><use xlink:href="#n" transform="matrix(1,0,0,1,752,-1389.2990653497309) translate(162.1604938271605 17.94444444444445)"/><use xlink:href="#k" transform="matrix(1,0,0,1,752,-1389.2990653497309) translate(0 44.611111111111114)"/><use xlink:href="#u" transform="matrix(1,0,0,1,752,-1389.2990653497309) translate(19.1358024691358 44.611111111111114)"/><use xlink:href="#m" transform="matrix(1,0,0,1,752,-1389.2990653497309) translate(163.39506172839506 44.611111111111114)"/><use xlink:href="#n" transform="matrix(1,0,0,1,752,-1389.2990653497309) translate(175.74074074074073 44.611111111111114)"/><use xlink:href="#k" transform="matrix(1,0,0,1,752,-1389.2990653497309) translate(0 71.27777777777779)"/><use xlink:href="#D" transform="matrix(1,0,0,1,752,-1389.2990653497309) translate(19.1358024691358 71.27777777777779)"/><use xlink:href="#m" transform="matrix(1,0,0,1,752,-1389.2990653497309) translate(192.90123456790118 71.27777777777779)"/><use xlink:href="#E" transform="matrix(1,0,0,1,752,-1389.2990653497309) translate(205.24691358024685 71.27777777777779)"/><use xlink:href="#k" transform="matrix(1,0,0,1,752,-1389.2990653497309) translate(0 97.94444444444446)"/><use xlink:href="#J" transform="matrix(1,0,0,1,752,-1389.2990653497309) translate(19.1358024691358 97.94444444444446)"/><use xlink:href="#m" transform="matrix(1,0,0,1,752,-1389.2990653497309) translate(0 124.61111111111111)"/><use xlink:href="#E" transform="matrix(1,0,0,1,752,-1389.2990653497309) translate(12.345679012345679 124.61111111111111)"/><use xlink:href="#k" transform="matrix(1,0,0,1,752,-1389.2990653497309) translate(0 151.27777777777777)"/><use xlink:href="#K" transform="matrix(1,0,0,1,752,-1389.2990653497309) translate(19.1358024691358 151.27777777777777)"/><use xlink:href="#m" transform="matrix(1,0,0,1,752,-1389.2990653497309) translate(0 177.94444444444446)"/><use xlink:href="#L" transform="matrix(1,0,0,1,752,-1389.2990653497309) translate(12.345679012345679 177.94444444444446)"/></g><path d="M-147.94-1502.67a6 6 0 0 1 6-6H129.1a6 6 0 0 1 6 6v249a6 6 0 0 1-6 6h-271.04a6 6 0 0 1-6-6z" stroke="#5e5e5e" stroke-width="3" fill="#fff"/><path d="M-147.94-1466H135.1m-283.04 96H135.1" stroke="#5e5e5e" stroke-width="3" fill="none"/><g><use xlink:href="#M" transform="matrix(1,0,0,1,-139.93893129771,-1500.6680465254994) translate(92.64197530864197 17.944444444444443)"/></g><g><use xlink:href="#k" transform="matrix(1,0,0,1,-135.93893129771,-1458.0013798588327) translate(0 17.77777777777778)"/><use xlink:href="#l" transform="matrix(1,0,0,1,-135.93893129771,-1458.0013798588327) translate(19.1358024691358 17.77777777777778)"/><use xlink:href="#m" transform="matrix(1,0,0,1,-135.93893129771,-1458.0013798588327) translate(80.80246913580247 17.77777777777778)"/><use xlink:href="#n" transform="matrix(1,0,0,1,-135.93893129771,-1458.0013798588327) translate(93.14814814814815 17.77777777777778)"/><use xlink:href="#k" transform="matrix(1,0,0,1,-135.93893129771,-1458.0013798588327) translate(0 44.44444444444444)"/><use xlink:href="#p" transform="matrix(1,0,0,1,-135.93893129771,-1458.0013798588327) translate(19.1358024691358 44.44444444444444)"/><use xlink:href="#m" transform="matrix(1,0,0,1,-135.93893129771,-1458.0013798588327) translate(104.25925925925925 44.44444444444444)"/><use xlink:href="#n" transform="matrix(1,0,0,1,-135.93893129771,-1458.0013798588327) translate(116.60493827160494 44.44444444444444)"/><use xlink:href="#k" transform="matrix(1,0,0,1,-135.93893129771,-1458.0013798588327) translate(0 71.11111111111111)"/><use xlink:href="#r" transform="matrix(1,0,0,1,-135.93893129771,-1458.0013798588327) translate(19.1358024691358 71.11111111111111)"/><use xlink:href="#m" transform="matrix(1,0,0,1,-135.93893129771,-1458.0013798588327) translate(117.8395061728395 71.11111111111111)"/><use xlink:href="#s" transform="matrix(1,0,0,1,-135.93893129771,-1458.0013798588327) translate(130.1851851851852 71.11111111111111)"/></g><g><use xlink:href="#G" transform="matrix(1,0,0,1,-135.93893129771,-1362.0013798588327) translate(0 17.94444444444445)"/><use xlink:href="#N" transform="matrix(1,0,0,1,-135.93893129771,-1362.0013798588327) translate(0 44.611111111111114)"/><use xlink:href="#o" transform="matrix(1,0,0,1,-135.93893129771,-1362.0013798588327) translate(0 71.27777777777779)"/><use xlink:href="#O" transform="matrix(1,0,0,1,-135.93893129771,-1362.0013798588327) translate(13.518518518518519 71.27777777777779)"/><use xlink:href="#o" transform="matrix(1,0,0,1,-135.93893129771,-1362.0013798588327) translate(0 97.94444444444446)"/><use xlink:href="#P" transform="matrix(1,0,0,1,-135.93893129771,-1362.0013798588327) translate(13.518518518518519 97.94444444444446)"/></g><path d="M-150.4-772.02h-762.07a6 6 0 0 1-6-6v-419.33" stroke="#5e5e5e" stroke-width="2" fill="none"/><path d="M-149.4-771.02h-1.03v-2h1.03z" stroke="#5e5e5e" stroke-width=".05" fill="#5e5e5e"/><path d="M-918.47-1226.7l14.85 14.86-14.85 15.15-14.85-15.14z" stroke="#5e5e5e" stroke-width="2" fill="#fff"/><path d="M876.58-1976.93l1.1.27 1.03.42.94.57.84.72.7.83.6.94.4 1.02.26 1.06.1 1.06v431.6h-2v-431.52l-.08-.82-.18-.76-.3-.73-.4-.67-.52-.6-.6-.5-.66-.4-.73-.3-.72-.2-709.46-.06v-2z" stroke="#5e5e5e" stroke-width=".05" fill="#5e5e5e"/><path d="M882.53-1537.43h-2v-1.02h2z" fill="#5e5e5e"/><path d="M882.55-1537.4h-2.05v-1.08h2.05zm-2-1.03v.98h1.95v-.98z" stroke="#5e5e5e" stroke-width=".05" fill="#5e5e5e"/><path d="M143.18-1974.9l-3.37-1.1 3.38-1.1z" fill="#5e5e5e"/><path d="M143.18-1976.04l-.13.04.13.04v2.1l-6.6-2.14 6.6-2.15z" stroke="#5e5e5e" stroke-width=".05" fill="#5e5e5e"/><g><use xlink:href="#Q" transform="matrix(1,0,0,1,143.18136690836616,-1986.6666666666667) translate(0 14.222222222222223)"/></g><path d="M936.1-565l-.25 1.1-.42 1.02-.58.94-.7.84-.85.7-.93.58-1.02.42-1.07.26-1.05.08-637.1-.05v-2l637.02.04.82-.06.76-.18.73-.3.67-.4.6-.52.5-.6.4-.67.3-.7.18-.74.08-584.06h2zm-941.5-1.1l.05.83.2.76.3.7.4.68.5.6.6.5.67.42.72.3.73.17 229.2.02v2l-229.44-.03-1.1-.27-1.02-.42-.93-.57-.83-.7-.72-.84-.57-.94-.42-1-.26-1.08-.08-1.06v-33.04h2zM936.2-1175v4.38h-2v-4.38z" stroke="#5e5e5e" stroke-width=".05" fill="#5e5e5e"/><path d="M-5.4-599.03h-2v-1.03h2z" fill="#5e5e5e"/><path d="M-5.4-599h-2.04v-1.08h2.05zm-2-1.03v.98h1.96v-.98z" stroke="#5e5e5e" stroke-width=".05" fill="#5e5e5e"/><path d="M939.82-1176.02h-9.27l4.64-14.26z" fill="#5e5e5e"/><path d="M941.2-1175.02h-12.02l6-18.5zm-9.27-2h6.52l-3.26-10.03z" stroke="#5e5e5e" stroke-width=".05" fill="#5e5e5e"/><g><use xlink:href="#R" transform="matrix(1,0,0,1,920.3731291139015,-1170.635498995945) translate(0 14.222222222222223)"/></g><g><use xlink:href="#S" transform="matrix(1,0,0,1,227.98445552321346,-570.722038370886) translate(0 14.222222222222223)"/></g><path d="M737.54-1365.47H155.08" stroke="#5e5e5e" stroke-width="2" fill="none"/><path d="M738.54-1364.47h-1.03v-2h1.04z" stroke="#5e5e5e" stroke-width=".05" fill="#5e5e5e"/><path d="M139.82-1365.47l14.26-4.63v9.27z" stroke="#5e5e5e" stroke-width="2" fill="#fff"/><path d="M-6.4-944.98v-282.72" stroke="#5e5e5e" stroke-width="2" fill="none"/><path d="M-5.4-943.98h-2V-945h2z" stroke="#5e5e5e" stroke-width=".05" fill="#5e5e5e"/><path d="M-6.4-1242.97l4.62 14.27h-9.27z" stroke="#5e5e5e" stroke-width="2" fill="#fff"/><path d="M-774.48-1373.57h309.74a2.3 2.3 0 0 0 2.3-2.3 2.3 2.3 0 0 1 2.3-2.3h292.24" stroke="#5e5e5e" stroke-width="2" fill="none"/><path d="M-774.46-1372.57h-1.02v-2h1.02z" stroke="#5e5e5e" stroke-width=".05" fill="#5e5e5e"/><path d="M-152.64-1378.17l-14.26 4.64v-9.27z" stroke="#5e5e5e" stroke-width="2" fill="#fff"/><path d="M-5.4-1528.63h-2v-300.9h2z" stroke="#5e5e5e" stroke-width=".05" fill="#5e5e5e"/><path d="M-5.4-1829.5h-2v-1.04h2z" fill="#5e5e5e"/><path d="M-5.4-1829.5h-2.04v-1.06h2.05zm-2-1v.96h1.96v-.97z" stroke="#5e5e5e" stroke-width=".05" fill="#5e5e5e"/><path d="M-6.4-1513.37l-4.65-14.26h9.27z" fill="#fff"/><path d="M-6.4-1510.13l-6.02-18.5H-.4zm-3.27-16.5l3.26 10.03 3.25-10.03zM-951.88-1520.02h-2v-14.8h2zm550.38-454.96l-546.2.05-.72.18-.72.3-.67.4-.6.52-.52.6-.4.66-.3.73-.2.76-.06.82v413.8h-2v-413.88l.1-1.06.24-1.06.42-1.02.58-.94.7-.83.85-.72.95-.57 1-.42 1.12-.27 546.43-.05zm188.08-.02l-139.78.02v-2l139.78-.02zm45.52 0h-15.9v-2h15.9z" stroke="#5e5e5e" stroke-width=".05" fill="#5e5e5e"/><path d="M-951.88-1519.02h-2v-1.03h2z" fill="#5e5e5e"/><path d="M-951.85-1519h-2.05v-1.07h2.05zm-2-1.02v.97h1.95v-.97z" stroke="#5e5e5e" stroke-width=".05" fill="#5e5e5e"/><path d="M-152.64-1976l-14.26 4.64v-9.28z" fill="#5e5e5e"/><path d="M-149.4-1976l-18.5 6v-12zm-16.5 3.26l10.03-3.26-10.03-3.26z" stroke="#5e5e5e" stroke-width=".05" fill="#5e5e5e"/><g><use xlink:href="#T" transform="matrix(1,0,0,1,-401.50014758314046,-1986.6666666666667) translate(0 14.222222222222223)"/></g><g><use xlink:href="#R" transform="matrix(1,0,0,1,-213.421648696664,-1986.6666666666667) translate(0 14.222222222222223)"/></g><g><use xlink:href="#U" transform="matrix(1,0,0,1,-967.6903203330625,-1556.1534445436369) translate(0 14.222222222222223)"/></g><path d="M882.53-777.98l-.1 1.06-.24 1.07-.43 1-.58.95-.72.83-.84.72-.93.57-1 .42-1.12.27-702.64.08v-2l702.4-.07.73-.17.73-.3.66-.4.6-.52.5-.58.42-.67.3-.72.18-.77.07-.82v-245.47h2zm0-266.9h-2v-147.62h2z" stroke="#5e5e5e" stroke-width=".05" fill="#5e5e5e"/><path d="M882.53-1192.48h-2v-1.02h2z" fill="#5e5e5e"/><path d="M882.55-1192.45h-2.05v-1.08h2.05zm-2-1.03v.98h1.95v-.98z" stroke="#5e5e5e" stroke-width=".05" fill="#5e5e5e"/><path d="M150.23-768.63l-10.42-3.4 10.43-3.37z" fill="#5e5e5e"/><path d="M150.23-774.35l-7.18 2.33 7.18 2.34v2.1l-13.65-4.44 13.65-4.44z" stroke="#5e5e5e" stroke-width=".05" fill="#5e5e5e"/><g><use xlink:href="#Q" transform="matrix(1,0,0,1,150.2333768620507,-782.6851885298901) translate(0 14.222222222222223)"/></g><g><use xlink:href="#V" transform="matrix(1,0,0,1,841.1069644708322,-1044.8676979676895) translate(0 14.222222222222223)"/></g><path d="M-863.2-1537.55h-2v-5.45h2zm1682.06-40.8l1.1.28 1.02.42.94.57.83.7.72.85.57.94.42 1.02.26 1.07.08 1.05v33.04h-2v-32.97l-.06-.82-.2-.76-.3-.72-.4-.67-.5-.6-.6-.5-.67-.42-.73-.3-.72-.17-843.06-.04v-2zm-853.18-.03v2l-823.84-.03-.82.05-.76.18-.73.3-.66.4-.6.52-.5.6-.42.67-.3.72-.17.73-.02 7.9h-2l.02-8.14.26-1.1.42-1.02.58-.93.7-.84.85-.7.92-.58 1.02-.42 1.07-.26 1.06-.08z" stroke="#5e5e5e" stroke-width=".05" fill="#5e5e5e"/><path d="M824.8-1537.4h-2v-1.04h2z" fill="#5e5e5e"/><path d="M824.83-1537.4h-2.05v-1.06h2.05zm-2-1v.96h1.95v-.97z" stroke="#5e5e5e" stroke-width=".05" fill="#5e5e5e"/><path d="M-864.2-1522.28l-4.63-14.27h9.27z" fill="#5e5e5e"/><path d="M-864.2-1519.05l-6-18.5h12zm-3.26-16.5l3.26 10.03 3.26-10.03z" stroke="#5e5e5e" stroke-width=".05" fill="#5e5e5e"/><g><use xlink:href="#W" transform="matrix(1,0,0,1,-877.5302823174186,-1564.335958005249) translate(0 14.222222222222223)"/></g><g><use xlink:href="#X" transform="matrix(1,0,0,1,-34.32028009271226,-1588.0798530317638) translate(0 14.222222222222223)"/></g><defs><path fill="#333" d="M115-194c55 1 70 41 70 98S169 2 115 4C84 4 66-9 55-30l1 105H24l-1-265h31l2 30c10-21 28-34 59-34zm-8 174c40 0 45-34 45-75s-6-73-45-74c-42 0-51 32-51 76 0 43 10 73 51 73" id="Y"/><path fill="#333" d="M114-163C36-179 61-72 57 0H25l-1-190h30c1 12-1 29 2 39 6-27 23-49 58-41v29" id="Z"/><path fill="#333" d="M100-194c62-1 85 37 85 99 1 63-27 99-86 99S16-35 15-95c0-66 28-99 85-99zM99-20c44 1 53-31 53-75 0-43-8-75-51-75s-53 32-53 75 10 74 51 75" id="aa"/><path fill="#333" d="M96-169c-40 0-48 33-48 73s9 75 48 75c24 0 41-14 43-38l32 2c-6 37-31 61-74 61-59 0-76-41-82-99-10-93 101-131 147-64 4 7 5 14 7 22l-32 3c-4-21-16-35-41-35" id="ab"/><path fill="#333" d="M100-194c63 0 86 42 84 106H49c0 40 14 67 53 68 26 1 43-12 49-29l28 8c-11 28-37 45-77 45C44 4 14-33 15-96c1-61 26-98 85-98zm52 81c6-60-76-77-97-28-3 7-6 17-6 28h103" id="ac"/><path fill="#333" d="M135-143c-3-34-86-38-87 0 15 53 115 12 119 90S17 21 10-45l28-5c4 36 97 45 98 0-10-56-113-15-118-90-4-57 82-63 122-42 12 7 21 19 24 35" id="ad"/><g id="a"><use transform="matrix(0.06172839506172839,0,0,0.06172839506172839,0,0)" xlink:href="#Y"/><use transform="matrix(0.06172839506172839,0,0,0.06172839506172839,12.345679012345679,0)" xlink:href="#Z"/><use transform="matrix(0.06172839506172839,0,0,0.06172839506172839,19.691358024691358,0)" xlink:href="#aa"/><use transform="matrix(0.06172839506172839,0,0,0.06172839506172839,32.03703703703704,0)" xlink:href="#ab"/><use transform="matrix(0.06172839506172839,0,0,0.06172839506172839,43.14814814814815,0)" xlink:href="#ac"/><use transform="matrix(0.06172839506172839,0,0,0.06172839506172839,55.49382716049383,0)" xlink:href="#ad"/><use transform="matrix(0.06172839506172839,0,0,0.06172839506172839,66.60493827160494,0)" xlink:href="#ad"/><use transform="matrix(0.06172839506172839,0,0,0.06172839506172839,77.71604938271605,0)" xlink:href="#aa"/></g><path fill="#333" d="M85-194c31 0 48 13 60 33l-1-100h32l1 261h-30c-2-10 0-23-3-31C134-8 116 4 85 4 32 4 16-35 15-94c0-66 23-100 70-100zm9 24c-40 0-46 34-46 75 0 40 6 74 45 74 42 0 51-32 51-76 0-42-9-74-50-73" id="ae"/><g id="b"><use transform="matrix(0.06172839506172839,0,0,0.06172839506172839,0,0)" xlink:href="#ae"/><use transform="matrix(0.06172839506172839,0,0,0.06172839506172839,12.345679012345679,0)" xlink:href="#ac"/></g><path fill="#333" d="M24-231v-30h32v30H24zM24 0v-190h32V0H24" id="af"/><g id="c"><use transform="matrix(0.06172839506172839,0,0,0.06172839506172839,0,0)" xlink:href="#Y"/><use transform="matrix(0.06172839506172839,0,0,0.06172839506172839,12.345679012345679,0)" xlink:href="#ac"/><use transform="matrix(0.06172839506172839,0,0,0.06172839506172839,24.691358024691358,0)" xlink:href="#ae"/><use transform="matrix(0.06172839506172839,0,0,0.06172839506172839,37.03703703703704,0)" xlink:href="#af"/><use transform="matrix(0.06172839506172839,0,0,0.06172839506172839,41.91358024691358,0)" xlink:href="#ae"/><use transform="matrix(0.06172839506172839,0,0,0.06172839506172839,54.25925925925926,0)" xlink:href="#aa"/></g><path fill="#333" d="M141-36C126-15 110 5 73 4 37 3 15-17 15-53c-1-64 63-63 125-63 3-35-9-54-41-54-24 1-41 7-42 31l-33-3c5-37 33-52 76-52 45 0 72 20 72 64v82c-1 20 7 32 28 27v20c-31 9-61-2-59-35zM48-53c0 20 12 33 32 33 41-3 63-29 60-74-43 2-92-5-92 41" id="ag"/><path fill="#333" d="M59-47c-2 24 18 29 38 22v24C64 9 27 4 27-40v-127H5v-23h24l9-43h21v43h35v23H59v120" id="ah"/><path fill="#333" d="M117-194c89-4 53 116 60 194h-32v-121c0-31-8-49-39-48C34-167 62-67 57 0H25l-1-190h30c1 10-1 24 2 32 11-22 29-35 61-36" id="ai"/><g id="d"><use transform="matrix(0.06172839506172839,0,0,0.06172839506172839,0,0)" xlink:href="#ag"/><use transform="matrix(0.06172839506172839,0,0,0.06172839506172839,12.345679012345679,0)" xlink:href="#ah"/><use transform="matrix(0.06172839506172839,0,0,0.06172839506172839,18.51851851851852,0)" xlink:href="#ac"/><use transform="matrix(0.06172839506172839,0,0,0.06172839506172839,30.864197530864196,0)" xlink:href="#ai"/><use transform="matrix(0.06172839506172839,0,0,0.06172839506172839,43.20987654320987,0)" xlink:href="#ae"/><use transform="matrix(0.06172839506172839,0,0,0.06172839506172839,55.55555555555555,0)" xlink:href="#ac"/><use transform="matrix(0.06172839506172839,0,0,0.06172839506172839,67.90123456790123,0)" xlink:href="#ai"/><use transform="matrix(0.06172839506172839,0,0,0.06172839506172839,80.24691358024691,0)" xlink:href="#ah"/><use transform="matrix(0.06172839506172839,0,0,0.06172839506172839,86.41975308641975,0)" xlink:href="#ac"/></g><path fill="#333" d="M24 0v-261h32V0H24" id="aj"/><g id="e"><use transform="matrix(0.06172839506172839,0,0,0.06172839506172839,0,0)" xlink:href="#ab"/><use transform="matrix(0.06172839506172839,0,0,0.06172839506172839,11.11111111111111,0)" xlink:href="#aj"/><use transform="matrix(0.06172839506172839,0,0,0.06172839506172839,15.987654320987653,0)" xlink:href="#af"/><use transform="matrix(0.06172839506172839,0,0,0.06172839506172839,20.864197530864196,0)" xlink:href="#ac"/><use transform="matrix(0.06172839506172839,0,0,0.06172839506172839,33.20987654320987,0)" xlink:href="#ai"/><use transform="matrix(0.06172839506172839,0,0,0.06172839506172839,45.55555555555555,0)" xlink:href="#ah"/><use transform="matrix(0.06172839506172839,0,0,0.06172839506172839,51.72839506172839,0)" xlink:href="#ac"/></g><path fill="#333" d="M9 0v-24l116-142H16v-24h144v24L44-24h123V0H9" id="ak"/><path fill="#333" d="M106-169C34-169 62-67 57 0H25v-261h32l-1 103c12-21 28-36 61-36 89 0 53 116 60 194h-32v-121c2-32-8-49-39-48" id="al"/><g id="f"><use transform="matrix(0.06172839506172839,0,0,0.06172839506172839,0,0)" xlink:href="#ab"/><use transform="matrix(0.06172839506172839,0,0,0.06172839506172839,11.11111111111111,0)" xlink:href="#aa"/><use transform="matrix(0.06172839506172839,0,0,0.06172839506172839,23.45679012345679,0)" xlink:href="#ak"/><use transform="matrix(0.06172839506172839,0,0,0.06172839506172839,34.5679012345679,0)" xlink:href="#af"/><use transform="matrix(0.06172839506172839,0,0,0.06172839506172839,39.44444444444444,0)" xlink:href="#ai"/><use transform="matrix(0.06172839506172839,0,0,0.06172839506172839,51.79012345679012,0)" xlink:href="#al"/><use transform="matrix(0.06172839506172839,0,0,0.06172839506172839,64.1358024691358,0)" xlink:href="#ac"/><use transform="matrix(0.06172839506172839,0,0,0.06172839506172839,76.48148148148148,0)" xlink:href="#af"/><use transform="matrix(0.06172839506172839,0,0,0.06172839506172839,81.35802469135803,0)" xlink:href="#Z"/><use transform="matrix(0.06172839506172839,0,0,0.06172839506172839,88.70370370370371,0)" xlink:href="#aa"/></g><path fill="#333" d="M15-91v-56l181-69v40L49-119l147 57v40" id="am"/><path fill="#333" d="M25-224v-37h50v37H25zM25 0v-190h50V0H25" id="an"/><path fill="#333" d="M135-194c87-1 58 113 63 194h-50c-7-57 23-157-34-157-59 0-34 97-39 157H25l-1-190h47c2 12-1 28 3 38 12-26 28-41 61-42" id="ao"/><path fill="#333" d="M190-63c-7 42-38 67-86 67-59 0-84-38-90-98-12-110 154-137 174-36l-49 2c-2-19-15-32-35-32-30 0-35 28-38 64-6 74 65 87 74 30" id="ap"/><path fill="#333" d="M25 0v-261h50V0H25" id="aq"/><path fill="#333" d="M85 4C-2 5 27-109 22-190h50c7 57-23 150 33 157 60-5 35-97 40-157h50l1 190h-47c-2-12 1-28-3-38-12 25-28 42-61 42" id="ar"/><path fill="#333" d="M88-194c31-1 46 15 58 34l-1-101h50l1 261h-48c-2-10 0-23-3-31C134-8 116 4 84 4 32 4 16-41 15-95c0-56 19-97 73-99zm17 164c33 0 40-30 41-66 1-37-9-64-41-64s-38 30-39 65c0 43 13 65 39 65" id="as"/><path fill="#333" d="M185-48c-13 30-37 53-82 52C43 2 14-33 14-96s30-98 90-98c62 0 83 45 84 108H66c0 31 8 55 39 56 18 0 30-7 34-22zm-45-69c5-46-57-63-70-21-2 6-4 13-4 21h74" id="at"/><path fill="#333" d="M15-22v-40l146-57-146-57v-40l181 69v56" id="au"/><g id="g"><use transform="matrix(0.04938271604938272,0,0,0.04938271604938272,0,0)" xlink:href="#am"/><use transform="matrix(0.04938271604938272,0,0,0.04938271604938272,10.370370370370372,0)" xlink:href="#am"/><use transform="matrix(0.04938271604938272,0,0,0.04938271604938272,20.740740740740744,0)" xlink:href="#an"/><use transform="matrix(0.04938271604938272,0,0,0.04938271604938272,25.679012345679016,0)" xlink:href="#ao"/><use transform="matrix(0.04938271604938272,0,0,0.04938271604938272,36.49382716049383,0)" xlink:href="#ap"/><use transform="matrix(0.04938271604938272,0,0,0.04938271604938272,46.370370370370374,0)" xlink:href="#aq"/><use transform="matrix(0.04938271604938272,0,0,0.04938271604938272,51.308641975308646,0)" xlink:href="#ar"/><use transform="matrix(0.04938271604938272,0,0,0.04938271604938272,62.12345679012346,0)" xlink:href="#as"/><use transform="matrix(0.04938271604938272,0,0,0.04938271604938272,72.93827160493828,0)" xlink:href="#at"/><use transform="matrix(0.04938271604938272,0,0,0.04938271604938272,82.81481481481482,0)" xlink:href="#au"/><use transform="matrix(0.04938271604938272,0,0,0.04938271604938272,93.18518518518519,0)" xlink:href="#au"/></g><g id="h"><use transform="matrix(0.04938271604938272,0,0,0.04938271604938272,0,0)" xlink:href="#am"/><use transform="matrix(0.04938271604938272,0,0,0.04938271604938272,10.370370370370372,0)" xlink:href="#am"/><use transform="matrix(0.04938271604938272,0,0,0.04938271604938272,20.740740740740744,0)" xlink:href="#an"/><use transform="matrix(0.04938271604938272,0,0,0.04938271604938272,25.679012345679016,0)" xlink:href="#ao"/><use transform="matrix(0.04938271604938272,0,0,0.04938271604938272,36.49382716049383,0)" xlink:href="#ap"/><use transform="matrix(0.04938271604938272,0,0,0.04938271604938272,46.370370370370374,0)" xlink:href="#aq"/><use transform="matrix(0.04938271604938272,0,0,0.04938271604938272,51.308641975308646,0)" xlink:href="#ar"/><use transform="matrix(0.04938271604938272,0,0,0.04938271604938272,62.12345679012346,0)" xlink:href="#as"/><use transform="matrix(0.04938271604938272,0,0,0.04938271604938272,72.93827160493828,0)" xlink:href="#at"/><use transform="matrix(0.04938271604938272,0,0,0.04938271604938272,82.81481481481482,0)" xlink:href="#au"/><use transform="matrix(0.04938271604938272,0,0,0.04938271604938272,93.18518518518519,0)" xlink:href="#au"/></g><path fill="#333" d="M177-190C167-65 218 103 67 71c-23-6-38-20-44-43l32-5c15 47 100 32 89-28v-30C133-14 115 1 83 1 29 1 15-40 15-95c0-56 16-97 71-98 29-1 48 16 59 35 1-10 0-23 2-32h30zM94-22c36 0 50-32 50-73 0-42-14-75-50-75-39 0-46 34-46 75s6 73 46 73" id="av"/><path fill="#333" d="M96-169c-40 0-48 33-48 73s9 75 48 75c24 0 41-14 43-38l32 2c-6 37-31 61-74 61-59 0-76-41-82-99-10-93 101-131 147-64 4 7 5 14 7 22l-32 3c-4-21-16-35-41-35zm3 187c19-1 33 8 33 26 0 31-30 33-64 32V58c18 2 39 4 41-13 1-15-18-13-34-13L87 0h19" id="aw"/><path fill="#333" d="M210-169c-67 3-38 105-44 169h-31v-121c0-29-5-50-35-48C34-165 62-65 56 0H25l-1-190h30c1 10-1 24 2 32 10-44 99-50 107 0 11-21 27-35 58-36 85-2 47 119 55 194h-31v-121c0-29-5-49-35-48" id="ax"/><g id="i"><use transform="matrix(0.06172839506172839,0,0,0.06172839506172839,0,0)" xlink:href="#av"/><use transform="matrix(0.06172839506172839,0,0,0.06172839506172839,12.345679012345679,0)" xlink:href="#ag"/><use transform="matrix(0.06172839506172839,0,0,0.06172839506172839,24.691358024691358,0)" xlink:href="#Z"/><use transform="matrix(0.06172839506172839,0,0,0.06172839506172839,32.03703703703704,0)" xlink:href="#aw"/><use transform="matrix(0.06172839506172839,0,0,0.06172839506172839,43.14814814814815,0)" xlink:href="#aa"/><use transform="matrix(0.06172839506172839,0,0,0.06172839506172839,55.49382716049383,0)" xlink:href="#ax"/></g><g id="j"><use transform="matrix(0.06172839506172839,0,0,0.06172839506172839,0,0)" xlink:href="#ab"/><use transform="matrix(0.06172839506172839,0,0,0.06172839506172839,11.11111111111111,0)" xlink:href="#aj"/><use transform="matrix(0.06172839506172839,0,0,0.06172839506172839,15.987654320987653,0)" xlink:href="#af"/><use transform="matrix(0.06172839506172839,0,0,0.06172839506172839,20.864197530864196,0)" xlink:href="#ac"/><use transform="matrix(0.06172839506172839,0,0,0.06172839506172839,33.20987654320987,0)" xlink:href="#ai"/><use transform="matrix(0.06172839506172839,0,0,0.06172839506172839,45.55555555555555,0)" xlink:href="#ah"/><use transform="matrix(0.06172839506172839,0,0,0.06172839506172839,51.72839506172839,0)" xlink:href="#ac"/></g><path fill="#333" d="M118-107v75H92v-75H18v-26h74v-75h26v75h74v26h-74" id="ay"/><use transform="matrix(0.06172839506172839,0,0,0.06172839506172839,0,0)" xlink:href="#ay" id="k"/><g id="l"><use transform="matrix(0.06172839506172839,0,0,0.06172839506172839,0,0)" xlink:href="#ai"/><use transform="matrix(0.06172839506172839,0,0,0.06172839506172839,12.345679012345679,0)" xlink:href="#aa"/><use transform="matrix(0.06172839506172839,0,0,0.06172839506172839,24.691358024691358,0)" xlink:href="#ax"/><use transform="matrix(0.06172839506172839,0,0,0.06172839506172839,43.148148148148145,0)" xlink:href="#ac"/></g><path fill="#333" d="M33-154v-36h34v36H33zM33 0v-36h34V0H33" id="az"/><use transform="matrix(0.06172839506172839,0,0,0.06172839506172839,0,0)" xlink:href="#az" id="m"/><g id="n"><use transform="matrix(0.06172839506172839,0,0,0.06172839506172839,0,0)" xlink:href="#ad"/><use transform="matrix(0.06172839506172839,0,0,0.06172839506172839,11.11111111111111,0)" xlink:href="#ah"/><use transform="matrix(0.06172839506172839,0,0,0.06172839506172839,17.28395061728395,0)" xlink:href="#Z"/><use transform="matrix(0.06172839506172839,0,0,0.06172839506172839,24.629629629629626,0)" xlink:href="#af"/><use transform="matrix(0.06172839506172839,0,0,0.06172839506172839,29.50617283950617,0)" xlink:href="#ai"/><use transform="matrix(0.06172839506172839,0,0,0.06172839506172839,41.85185185185185,0)" xlink:href="#av"/></g><path fill="#333" d="M16-82v-28h88v28H16" id="aA"/><use transform="matrix(0.06172839506172839,0,0,0.06172839506172839,0,0)" xlink:href="#aA" id="o"/><path fill="#333" d="M101-234c-31-9-42 10-38 44h38v23H63V0H32v-167H5v-23h27c-7-52 17-82 69-68v24" id="aB"/><g id="p"><use transform="matrix(0.06172839506172839,0,0,0.06172839506172839,0,0)" xlink:href="#ah"/><use transform="matrix(0.06172839506172839,0,0,0.06172839506172839,6.172839506172839,0)" xlink:href="#ac"/><use transform="matrix(0.06172839506172839,0,0,0.06172839506172839,18.51851851851852,0)" xlink:href="#aj"/><use transform="matrix(0.06172839506172839,0,0,0.06172839506172839,23.395061728395063,0)" xlink:href="#ac"/><use transform="matrix(0.06172839506172839,0,0,0.06172839506172839,35.74074074074074,0)" xlink:href="#aB"/><use transform="matrix(0.06172839506172839,0,0,0.06172839506172839,41.91358024691358,0)" xlink:href="#aa"/><use transform="matrix(0.06172839506172839,0,0,0.06172839506172839,54.25925925925926,0)" xlink:href="#ai"/><use transform="matrix(0.06172839506172839,0,0,0.06172839506172839,66.60493827160494,0)" xlink:href="#ac"/></g><use transform="matrix(0.06172839506172839,0,0,0.06172839506172839,0,0)" xlink:href="#az" id="q"/><g id="r"><use transform="matrix(0.06172839506172839,0,0,0.06172839506172839,0,0)" xlink:href="#ac"/><use transform="matrix(0.06172839506172839,0,0,0.06172839506172839,12.345679012345679,0)" xlink:href="#ai"/><use transform="matrix(0.06172839506172839,0,0,0.06172839506172839,24.691358024691358,0)" xlink:href="#ae"/><use transform="matrix(0.06172839506172839,0,0,0.06172839506172839,37.03703703703704,0)" xlink:href="#ac"/><use transform="matrix(0.06172839506172839,0,0,0.06172839506172839,49.382716049382715,0)" xlink:href="#Z"/><use transform="matrix(0.06172839506172839,0,0,0.06172839506172839,56.72839506172839,0)" xlink:href="#ac"/><use transform="matrix(0.06172839506172839,0,0,0.06172839506172839,69.07407407407408,0)" xlink:href="#ab"/><use transform="matrix(0.06172839506172839,0,0,0.06172839506172839,80.18518518518519,0)" xlink:href="#aa"/></g><g id="s"><use transform="matrix(0.06172839506172839,0,0,0.06172839506172839,0,0)" xlink:href="#ad"/><use transform="matrix(0.06172839506172839,0,0,0.06172839506172839,11.11111111111111,0)" xlink:href="#ah"/><use transform="matrix(0.06172839506172839,0,0,0.06172839506172839,17.28395061728395,0)" xlink:href="#Z"/><use transform="matrix(0.06172839506172839,0,0,0.06172839506172839,24.629629629629626,0)" xlink:href="#af"/><use transform="matrix(0.06172839506172839,0,0,0.06172839506172839,29.50617283950617,0)" xlink:href="#ai"/><use transform="matrix(0.06172839506172839,0,0,0.06172839506172839,41.85185185185185,0)" xlink:href="#av"/></g><path fill="#333" d="M87 75C49 33 22-17 22-94c0-76 28-126 65-167h31c-38 41-64 92-64 168S80 34 118 75H87" id="aC"/><path fill="#333" d="M33-261c38 41 65 92 65 168S71 34 33 75H2C39 34 66-17 66-93S39-220 2-261h31" id="aD"/><g id="t"><use transform="matrix(0.06172839506172839,0,0,0.06172839506172839,0,0)" xlink:href="#av"/><use transform="matrix(0.06172839506172839,0,0,0.06172839506172839,12.345679012345679,0)" xlink:href="#ac"/><use transform="matrix(0.06172839506172839,0,0,0.06172839506172839,24.691358024691358,0)" xlink:href="#ah"/><use transform="matrix(0.06172839506172839,0,0,0.06172839506172839,30.864197530864196,0)" xlink:href="#ah"/><use transform="matrix(0.06172839506172839,0,0,0.06172839506172839,37.03703703703704,0)" xlink:href="#ac"/><use transform="matrix(0.06172839506172839,0,0,0.06172839506172839,49.382716049382715,0)" xlink:href="#aj"/><use transform="matrix(0.06172839506172839,0,0,0.06172839506172839,54.25925925925926,0)" xlink:href="#ac"/><use transform="matrix(0.06172839506172839,0,0,0.06172839506172839,66.60493827160494,0)" xlink:href="#aB"/><use transform="matrix(0.06172839506172839,0,0,0.06172839506172839,72.77777777777777,0)" xlink:href="#aa"/><use transform="matrix(0.06172839506172839,0,0,0.06172839506172839,85.12345679012346,0)" xlink:href="#ai"/><use transform="matrix(0.06172839506172839,0,0,0.06172839506172839,97.46913580246914,0)" xlink:href="#ac"/><use transform="matrix(0.06172839506172839,0,0,0.06172839506172839,109.81481481481482,0)" xlink:href="#aC"/><use transform="matrix(0.06172839506172839,0,0,0.06172839506172839,117.16049382716051,0)" xlink:href="#aD"/></g><g id="u"><use transform="matrix(0.06172839506172839,0,0,0.06172839506172839,0,0)" xlink:href="#av"/><use transform="matrix(0.06172839506172839,0,0,0.06172839506172839,12.345679012345679,0)" xlink:href="#ac"/><use transform="matrix(0.06172839506172839,0,0,0.06172839506172839,24.691358024691358,0)" xlink:href="#ah"/><use transform="matrix(0.06172839506172839,0,0,0.06172839506172839,30.864197530864196,0)" xlink:href="#ac"/><use transform="matrix(0.06172839506172839,0,0,0.06172839506172839,43.20987654320987,0)" xlink:href="#ai"/><use transform="matrix(0.06172839506172839,0,0,0.06172839506172839,55.55555555555555,0)" xlink:href="#ae"/><use transform="matrix(0.06172839506172839,0,0,0.06172839506172839,67.90123456790123,0)" xlink:href="#ac"/><use transform="matrix(0.06172839506172839,0,0,0.06172839506172839,80.24691358024691,0)" xlink:href="#Z"/><use transform="matrix(0.06172839506172839,0,0,0.06172839506172839,87.5925925925926,0)" xlink:href="#ac"/><use transform="matrix(0.06172839506172839,0,0,0.06172839506172839,99.93827160493828,0)" xlink:href="#ab"/><use transform="matrix(0.06172839506172839,0,0,0.06172839506172839,111.0493827160494,0)" xlink:href="#aa"/><use transform="matrix(0.06172839506172839,0,0,0.06172839506172839,123.39506172839508,0)" xlink:href="#aC"/><use transform="matrix(0.06172839506172839,0,0,0.06172839506172839,130.74074074074076,0)" xlink:href="#aD"/></g><path fill="#333" d="M84 4C-5 8 30-112 23-190h32v120c0 31 7 50 39 49 72-2 45-101 50-169h31l1 190h-30c-1-10 1-25-2-33-11 22-28 36-60 37" id="aE"/><path fill="#333" d="M212-179c-10-28-35-45-73-45-59 0-87 40-87 99 0 60 29 101 89 101 43 0 62-24 78-52l27 14C228-24 195 4 139 4 59 4 22-46 18-125c-6-104 99-153 187-111 19 9 31 26 39 46" id="aF"/><g id="v"><use transform="matrix(0.06172839506172839,0,0,0.06172839506172839,0,0)" xlink:href="#ab"/><use transform="matrix(0.06172839506172839,0,0,0.06172839506172839,11.11111111111111,0)" xlink:href="#aa"/><use transform="matrix(0.06172839506172839,0,0,0.06172839506172839,23.45679012345679,0)" xlink:href="#ai"/><use transform="matrix(0.06172839506172839,0,0,0.06172839506172839,35.80246913580247,0)" xlink:href="#ad"/><use transform="matrix(0.06172839506172839,0,0,0.06172839506172839,46.91358024691358,0)" xlink:href="#aE"/><use transform="matrix(0.06172839506172839,0,0,0.06172839506172839,59.25925925925926,0)" xlink:href="#aj"/><use transform="matrix(0.06172839506172839,0,0,0.06172839506172839,64.1358024691358,0)" xlink:href="#ah"/><use transform="matrix(0.06172839506172839,0,0,0.06172839506172839,70.30864197530863,0)" xlink:href="#ag"/><use transform="matrix(0.06172839506172839,0,0,0.06172839506172839,82.65432098765432,0)" xlink:href="#Z"/><use transform="matrix(0.06172839506172839,0,0,0.06172839506172839,90,0)" xlink:href="#aF"/><use transform="matrix(0.06172839506172839,0,0,0.06172839506172839,105.98765432098766,0)" xlink:href="#ag"/><use transform="matrix(0.06172839506172839,0,0,0.06172839506172839,118.33333333333334,0)" xlink:href="#Z"/><use transform="matrix(0.06172839506172839,0,0,0.06172839506172839,125.67901234567903,0)" xlink:href="#ae"/><use transform="matrix(0.06172839506172839,0,0,0.06172839506172839,138.0246913580247,0)" xlink:href="#ag"/><use transform="matrix(0.06172839506172839,0,0,0.06172839506172839,150.37037037037038,0)" xlink:href="#Y"/><use transform="matrix(0.06172839506172839,0,0,0.06172839506172839,162.71604938271605,0)" xlink:href="#af"/><use transform="matrix(0.06172839506172839,0,0,0.06172839506172839,167.59259259259258,0)" xlink:href="#aa"/><use transform="matrix(0.06172839506172839,0,0,0.06172839506172839,179.93827160493825,0)" xlink:href="#aC"/><use transform="matrix(0.06172839506172839,0,0,0.06172839506172839,187.28395061728392,0)" xlink:href="#aD"/></g><use transform="matrix(0.06172839506172839,0,0,0.06172839506172839,0,0)" xlink:href="#az" id="w"/><path fill="#333" d="M63-220v92h138v28H63V0H30v-248h175v28H63" id="aG"/><path fill="#333" d="M30-248c87 1 191-15 191 75 0 78-77 80-158 76V0H30v-248zm33 125c57 0 124 11 124-50 0-59-68-47-124-48v98" id="aH"/><g id="x"><use transform="matrix(0.06172839506172839,0,0,0.06172839506172839,0,0)" xlink:href="#aG"/><use transform="matrix(0.06172839506172839,0,0,0.06172839506172839,13.518518518518517,0)" xlink:href="#ag"/><use transform="matrix(0.06172839506172839,0,0,0.06172839506172839,25.864197530864196,0)" xlink:href="#ak"/><use transform="matrix(0.06172839506172839,0,0,0.06172839506172839,36.9753086419753,0)" xlink:href="#ac"/><use transform="matrix(0.06172839506172839,0,0,0.06172839506172839,49.32098765432098,0)" xlink:href="#Z"/><use transform="matrix(0.06172839506172839,0,0,0.06172839506172839,56.66666666666666,0)" xlink:href="#aH"/><use transform="matrix(0.06172839506172839,0,0,0.06172839506172839,71.48148148148147,0)" xlink:href="#ac"/><use transform="matrix(0.06172839506172839,0,0,0.06172839506172839,83.82716049382715,0)" xlink:href="#ae"/><use transform="matrix(0.06172839506172839,0,0,0.06172839506172839,96.17283950617283,0)" xlink:href="#af"/><use transform="matrix(0.06172839506172839,0,0,0.06172839506172839,101.04938271604938,0)" xlink:href="#ae"/><use transform="matrix(0.06172839506172839,0,0,0.06172839506172839,113.39506172839506,0)" xlink:href="#aa"/><use transform="matrix(0.06172839506172839,0,0,0.06172839506172839,125.74074074074075,0)" xlink:href="#aC"/><use transform="matrix(0.06172839506172839,0,0,0.06172839506172839,133.08641975308643,0)" xlink:href="#aD"/></g><path fill="#333" d="M141 0L90-78 38 0H4l68-98-65-92h35l48 74 47-74h35l-64 92 68 98h-35" id="aI"/><g id="y"><use transform="matrix(0.06172839506172839,0,0,0.06172839506172839,0,0)" xlink:href="#ab"/><use transform="matrix(0.06172839506172839,0,0,0.06172839506172839,11.11111111111111,0)" xlink:href="#ag"/><use transform="matrix(0.06172839506172839,0,0,0.06172839506172839,23.45679012345679,0)" xlink:href="#af"/><use transform="matrix(0.06172839506172839,0,0,0.06172839506172839,28.333333333333336,0)" xlink:href="#aI"/><use transform="matrix(0.06172839506172839,0,0,0.06172839506172839,39.44444444444444,0)" xlink:href="#ag"/></g><g id="z"><use transform="matrix(0.06172839506172839,0,0,0.06172839506172839,0,0)" xlink:href="#af"/><use transform="matrix(0.06172839506172839,0,0,0.06172839506172839,4.876543209876543,0)" xlink:href="#ai"/><use transform="matrix(0.06172839506172839,0,0,0.06172839506172839,17.22222222222222,0)" xlink:href="#ah"/></g><g id="A"><use transform="matrix(0.06172839506172839,0,0,0.06172839506172839,0,0)" xlink:href="#aF"/><use transform="matrix(0.06172839506172839,0,0,0.06172839506172839,15.987654320987653,0)" xlink:href="#aa"/><use transform="matrix(0.06172839506172839,0,0,0.06172839506172839,28.333333333333332,0)" xlink:href="#ai"/><use transform="matrix(0.06172839506172839,0,0,0.06172839506172839,40.67901234567901,0)" xlink:href="#ad"/><use transform="matrix(0.06172839506172839,0,0,0.06172839506172839,51.79012345679013,0)" xlink:href="#aE"/><use transform="matrix(0.06172839506172839,0,0,0.06172839506172839,64.13580246913581,0)" xlink:href="#aj"/><use transform="matrix(0.06172839506172839,0,0,0.06172839506172839,69.01234567901236,0)" xlink:href="#ah"/><use transform="matrix(0.06172839506172839,0,0,0.06172839506172839,75.18518518518519,0)" xlink:href="#ag"/><use transform="matrix(0.06172839506172839,0,0,0.06172839506172839,87.53086419753087,0)" xlink:href="#Z"/><use transform="matrix(0.06172839506172839,0,0,0.06172839506172839,94.87654320987656,0)" xlink:href="#aF"/><use transform="matrix(0.06172839506172839,0,0,0.06172839506172839,110.86419753086422,0)" xlink:href="#ag"/><use transform="matrix(0.06172839506172839,0,0,0.06172839506172839,123.2098765432099,0)" xlink:href="#Z"/><use transform="matrix(0.06172839506172839,0,0,0.06172839506172839,130.55555555555557,0)" xlink:href="#ae"/><use transform="matrix(0.06172839506172839,0,0,0.06172839506172839,142.90123456790124,0)" xlink:href="#ag"/><use transform="matrix(0.06172839506172839,0,0,0.06172839506172839,155.2469135802469,0)" xlink:href="#Y"/><use transform="matrix(0.06172839506172839,0,0,0.06172839506172839,167.59259259259258,0)" xlink:href="#af"/><use transform="matrix(0.06172839506172839,0,0,0.06172839506172839,172.4691358024691,0)" xlink:href="#aa"/><use transform="matrix(0.06172839506172839,0,0,0.06172839506172839,184.81481481481478,0)" xlink:href="#aC"/><use transform="matrix(0.06172839506172839,0,0,0.06172839506172839,192.16049382716045,0)" xlink:href="#aD"/></g><path fill="#333" d="M205 0l-28-72H64L36 0H1l101-248h38L239 0h-34zm-38-99l-47-123c-12 45-31 82-46 123h93" id="aJ"/><g id="B"><use transform="matrix(0.06172839506172839,0,0,0.06172839506172839,0,0)" xlink:href="#aJ"/><use transform="matrix(0.06172839506172839,0,0,0.06172839506172839,14.814814814814813,0)" xlink:href="#ai"/><use transform="matrix(0.06172839506172839,0,0,0.06172839506172839,27.160493827160494,0)" xlink:href="#aa"/><use transform="matrix(0.06172839506172839,0,0,0.06172839506172839,39.50617283950617,0)" xlink:href="#ah"/><use transform="matrix(0.06172839506172839,0,0,0.06172839506172839,45.67901234567901,0)" xlink:href="#ag"/><use transform="matrix(0.06172839506172839,0,0,0.06172839506172839,58.02469135802469,0)" xlink:href="#Z"/><use transform="matrix(0.06172839506172839,0,0,0.06172839506172839,65.37037037037037,0)" xlink:href="#aH"/><use transform="matrix(0.06172839506172839,0,0,0.06172839506172839,80.18518518518518,0)" xlink:href="#ac"/><use transform="matrix(0.06172839506172839,0,0,0.06172839506172839,92.53086419753086,0)" xlink:href="#ae"/><use transform="matrix(0.06172839506172839,0,0,0.06172839506172839,104.87654320987654,0)" xlink:href="#af"/><use transform="matrix(0.06172839506172839,0,0,0.06172839506172839,109.75308641975309,0)" xlink:href="#ae"/><use transform="matrix(0.06172839506172839,0,0,0.06172839506172839,122.09876543209877,0)" xlink:href="#aa"/><use transform="matrix(0.06172839506172839,0,0,0.06172839506172839,134.44444444444446,0)" xlink:href="#aC"/><use transform="matrix(0.06172839506172839,0,0,0.06172839506172839,141.79012345679013,0)" xlink:href="#aD"/></g><g id="C"><use transform="matrix(0.06172839506172839,0,0,0.06172839506172839,0,0)" xlink:href="#ab"/><use transform="matrix(0.06172839506172839,0,0,0.06172839506172839,11.11111111111111,0)" xlink:href="#aa"/><use transform="matrix(0.06172839506172839,0,0,0.06172839506172839,23.45679012345679,0)" xlink:href="#ak"/><use transform="matrix(0.06172839506172839,0,0,0.06172839506172839,34.5679012345679,0)" xlink:href="#af"/><use transform="matrix(0.06172839506172839,0,0,0.06172839506172839,39.44444444444444,0)" xlink:href="#ai"/><use transform="matrix(0.06172839506172839,0,0,0.06172839506172839,51.79012345679012,0)" xlink:href="#al"/><use transform="matrix(0.06172839506172839,0,0,0.06172839506172839,64.1358024691358,0)" xlink:href="#ac"/><use transform="matrix(0.06172839506172839,0,0,0.06172839506172839,76.48148148148148,0)" xlink:href="#af"/><use transform="matrix(0.06172839506172839,0,0,0.06172839506172839,81.35802469135803,0)" xlink:href="#Z"/><use transform="matrix(0.06172839506172839,0,0,0.06172839506172839,88.70370370370371,0)" xlink:href="#aa"/></g><path fill="#333" d="M233-177c-1 41-23 64-60 70L243 0h-38l-65-103H63V0H30v-248c88 3 205-21 203 71zM63-129c60-2 137 13 137-47 0-61-80-42-137-45v92" id="aK"/><path fill="#333" d="M115-194c53 0 69 39 70 98 0 66-23 100-70 100C84 3 66-7 56-30L54 0H23l1-261h32v101c10-23 28-34 59-34zm-8 174c40 0 45-34 45-75 0-40-5-75-45-74-42 0-51 32-51 76 0 43 10 73 51 73" id="aL"/><g id="D"><use transform="matrix(0.06172839506172839,0,0,0.06172839506172839,0,0)" xlink:href="#aK"/><use transform="matrix(0.06172839506172839,0,0,0.06172839506172839,15.987654320987653,0)" xlink:href="#ac"/><use transform="matrix(0.06172839506172839,0,0,0.06172839506172839,28.333333333333332,0)" xlink:href="#ab"/><use transform="matrix(0.06172839506172839,0,0,0.06172839506172839,39.44444444444444,0)" xlink:href="#ac"/><use transform="matrix(0.06172839506172839,0,0,0.06172839506172839,51.79012345679012,0)" xlink:href="#aL"/><use transform="matrix(0.06172839506172839,0,0,0.06172839506172839,64.1358024691358,0)" xlink:href="#ac"/><use transform="matrix(0.06172839506172839,0,0,0.06172839506172839,76.48148148148148,0)" xlink:href="#Z"/><use transform="matrix(0.06172839506172839,0,0,0.06172839506172839,83.82716049382717,0)" xlink:href="#aH"/><use transform="matrix(0.06172839506172839,0,0,0.06172839506172839,98.64197530864197,0)" xlink:href="#ac"/><use transform="matrix(0.06172839506172839,0,0,0.06172839506172839,110.98765432098766,0)" xlink:href="#ae"/><use transform="matrix(0.06172839506172839,0,0,0.06172839506172839,123.33333333333334,0)" xlink:href="#af"/><use transform="matrix(0.06172839506172839,0,0,0.06172839506172839,128.20987654320987,0)" xlink:href="#ae"/><use transform="matrix(0.06172839506172839,0,0,0.06172839506172839,140.55555555555554,0)" xlink:href="#aa"/><use transform="matrix(0.06172839506172839,0,0,0.06172839506172839,152.9012345679012,0)" xlink:href="#aC"/><use transform="matrix(0.06172839506172839,0,0,0.06172839506172839,160.24691358024688,0)" xlink:href="#aD"/></g><path fill="#333" d="M108 0H70L1-190h34L89-25l56-165h34" id="aM"/><g id="E"><use transform="matrix(0.06172839506172839,0,0,0.06172839506172839,0,0)" xlink:href="#aM"/><use transform="matrix(0.06172839506172839,0,0,0.06172839506172839,11.11111111111111,0)" xlink:href="#aa"/><use transform="matrix(0.06172839506172839,0,0,0.06172839506172839,23.45679012345679,0)" xlink:href="#af"/><use transform="matrix(0.06172839506172839,0,0,0.06172839506172839,28.333333333333336,0)" xlink:href="#ae"/></g><g id="F"><use transform="matrix(0.06172839506172839,0,0,0.06172839506172839,0,0)" xlink:href="#aH"/><use transform="matrix(0.06172839506172839,0,0,0.06172839506172839,14.814814814814813,0)" xlink:href="#Z"/><use transform="matrix(0.06172839506172839,0,0,0.06172839506172839,22.160493827160494,0)" xlink:href="#ac"/><use transform="matrix(0.06172839506172839,0,0,0.06172839506172839,34.50617283950617,0)" xlink:href="#Y"/><use transform="matrix(0.06172839506172839,0,0,0.06172839506172839,46.85185185185185,0)" xlink:href="#ag"/><use transform="matrix(0.06172839506172839,0,0,0.06172839506172839,59.197530864197525,0)" xlink:href="#Z"/><use transform="matrix(0.06172839506172839,0,0,0.06172839506172839,66.5432098765432,0)" xlink:href="#ag"/><use transform="matrix(0.06172839506172839,0,0,0.06172839506172839,78.88888888888889,0)" xlink:href="#Z"/><use transform="matrix(0.06172839506172839,0,0,0.06172839506172839,86.23456790123457,0)" xlink:href="#aH"/><use transform="matrix(0.06172839506172839,0,0,0.06172839506172839,101.04938271604938,0)" xlink:href="#ac"/><use transform="matrix(0.06172839506172839,0,0,0.06172839506172839,113.39506172839506,0)" xlink:href="#ae"/><use transform="matrix(0.06172839506172839,0,0,0.06172839506172839,125.74074074074075,0)" xlink:href="#af"/><use transform="matrix(0.06172839506172839,0,0,0.06172839506172839,130.6172839506173,0)" xlink:href="#ae"/><use transform="matrix(0.06172839506172839,0,0,0.06172839506172839,142.96296296296296,0)" xlink:href="#aa"/><use transform="matrix(0.06172839506172839,0,0,0.06172839506172839,155.30864197530863,0)" xlink:href="#aC"/><use transform="matrix(0.06172839506172839,0,0,0.06172839506172839,162.6543209876543,0)" xlink:href="#aD"/></g><use transform="matrix(0.06172839506172839,0,0,0.06172839506172839,0,0)" xlink:href="#ay" id="G"/><path fill="#333" d="M30 0v-248h187v28H63v79h144v27H63v87h162V0H30" id="aN"/><path fill="#333" d="M143 4C61 4 22-44 18-125c-5-107 100-154 193-111 17 8 29 25 37 43l-32 9c-13-25-37-40-76-40-61 0-88 39-88 99 0 61 29 100 91 101 35 0 62-11 79-27v-45h-74v-28h105v86C228-13 192 4 143 4" id="aO"/><g id="H"><use transform="matrix(0.06172839506172839,0,0,0.06172839506172839,0,0)" xlink:href="#aN"/><use transform="matrix(0.06172839506172839,0,0,0.06172839506172839,14.814814814814813,0)" xlink:href="#ai"/><use transform="matrix(0.06172839506172839,0,0,0.06172839506172839,27.160493827160494,0)" xlink:href="#ah"/><use transform="matrix(0.06172839506172839,0,0,0.06172839506172839,33.333333333333336,0)" xlink:href="#Z"/><use transform="matrix(0.06172839506172839,0,0,0.06172839506172839,40.67901234567901,0)" xlink:href="#ac"/><use transform="matrix(0.06172839506172839,0,0,0.06172839506172839,53.02469135802469,0)" xlink:href="#av"/><use transform="matrix(0.06172839506172839,0,0,0.06172839506172839,65.37037037037037,0)" xlink:href="#ag"/><use transform="matrix(0.06172839506172839,0,0,0.06172839506172839,77.71604938271605,0)" xlink:href="#Z"/><use transform="matrix(0.06172839506172839,0,0,0.06172839506172839,85.06172839506173,0)" xlink:href="#aH"/><use transform="matrix(0.06172839506172839,0,0,0.06172839506172839,99.87654320987654,0)" xlink:href="#ac"/><use transform="matrix(0.06172839506172839,0,0,0.06172839506172839,112.22222222222223,0)" xlink:href="#ae"/><use transform="matrix(0.06172839506172839,0,0,0.06172839506172839,124.56790123456791,0)" xlink:href="#af"/><use transform="matrix(0.06172839506172839,0,0,0.06172839506172839,129.44444444444446,0)" xlink:href="#ae"/><use transform="matrix(0.06172839506172839,0,0,0.06172839506172839,141.79012345679013,0)" xlink:href="#aa"/><use transform="matrix(0.06172839506172839,0,0,0.06172839506172839,154.1358024691358,0)" xlink:href="#aO"/><use transform="matrix(0.06172839506172839,0,0,0.06172839506172839,171.41975308641975,0)" xlink:href="#ag"/><use transform="matrix(0.06172839506172839,0,0,0.06172839506172839,183.76543209876542,0)" xlink:href="#Z"/><use transform="matrix(0.06172839506172839,0,0,0.06172839506172839,191.1111111111111,0)" xlink:href="#ab"/><use transform="matrix(0.06172839506172839,0,0,0.06172839506172839,202.2222222222222,0)" xlink:href="#aa"/><use transform="matrix(0.06172839506172839,0,0,0.06172839506172839,214.56790123456787,0)" xlink:href="#ax"/><use transform="matrix(0.06172839506172839,0,0,0.06172839506172839,233.02469135802465,0)" xlink:href="#aC"/><use transform="matrix(0.06172839506172839,0,0,0.06172839506172839,240.37037037037032,0)" xlink:href="#aD"/></g><g id="I"><use transform="matrix(0.06172839506172839,0,0,0.06172839506172839,0,0)" xlink:href="#av"/><use transform="matrix(0.06172839506172839,0,0,0.06172839506172839,12.345679012345679,0)" xlink:href="#ag"/><use transform="matrix(0.06172839506172839,0,0,0.06172839506172839,24.691358024691358,0)" xlink:href="#Z"/><use transform="matrix(0.06172839506172839,0,0,0.06172839506172839,32.03703703703704,0)" xlink:href="#ab"/><use transform="matrix(0.06172839506172839,0,0,0.06172839506172839,43.14814814814815,0)" xlink:href="#aa"/><use transform="matrix(0.06172839506172839,0,0,0.06172839506172839,55.49382716049383,0)" xlink:href="#ax"/></g><g id="J"><use transform="matrix(0.06172839506172839,0,0,0.06172839506172839,0,0)" xlink:href="#aN"/><use transform="matrix(0.06172839506172839,0,0,0.06172839506172839,14.814814814814813,0)" xlink:href="#ai"/><use transform="matrix(0.06172839506172839,0,0,0.06172839506172839,27.160493827160494,0)" xlink:href="#ah"/><use transform="matrix(0.06172839506172839,0,0,0.06172839506172839,33.333333333333336,0)" xlink:href="#Z"/><use transform="matrix(0.06172839506172839,0,0,0.06172839506172839,40.67901234567901,0)" xlink:href="#ac"/><use transform="matrix(0.06172839506172839,0,0,0.06172839506172839,53.02469135802469,0)" xlink:href="#av"/><use transform="matrix(0.06172839506172839,0,0,0.06172839506172839,65.37037037037037,0)" xlink:href="#ag"/><use transform="matrix(0.06172839506172839,0,0,0.06172839506172839,77.71604938271605,0)" xlink:href="#Z"/><use transform="matrix(0.06172839506172839,0,0,0.06172839506172839,85.06172839506173,0)" xlink:href="#aH"/><use transform="matrix(0.06172839506172839,0,0,0.06172839506172839,99.87654320987654,0)" xlink:href="#ac"/><use transform="matrix(0.06172839506172839,0,0,0.06172839506172839,112.22222222222223,0)" xlink:href="#ae"/><use transform="matrix(0.06172839506172839,0,0,0.06172839506172839,124.56790123456791,0)" xlink:href="#af"/><use transform="matrix(0.06172839506172839,0,0,0.06172839506172839,129.44444444444446,0)" xlink:href="#ae"/><use transform="matrix(0.06172839506172839,0,0,0.06172839506172839,141.79012345679013,0)" xlink:href="#aa"/><use transform="matrix(0.06172839506172839,0,0,0.06172839506172839,154.1358024691358,0)" xlink:href="#aF"/><use transform="matrix(0.06172839506172839,0,0,0.06172839506172839,170.12345679012344,0)" xlink:href="#aj"/><use transform="matrix(0.06172839506172839,0,0,0.06172839506172839,174.99999999999997,0)" xlink:href="#af"/><use transform="matrix(0.06172839506172839,0,0,0.06172839506172839,179.8765432098765,0)" xlink:href="#ac"/><use transform="matrix(0.06172839506172839,0,0,0.06172839506172839,192.22222222222217,0)" xlink:href="#ai"/><use transform="matrix(0.06172839506172839,0,0,0.06172839506172839,204.56790123456784,0)" xlink:href="#ah"/><use transform="matrix(0.06172839506172839,0,0,0.06172839506172839,210.74074074074068,0)" xlink:href="#ac"/><use transform="matrix(0.06172839506172839,0,0,0.06172839506172839,223.08641975308635,0)" xlink:href="#aC"/><use transform="matrix(0.06172839506172839,0,0,0.06172839506172839,230.43209876543202,0)" xlink:href="#aD"/></g><path fill="#333" d="M240 0l2-218c-23 76-54 145-80 218h-23L58-218 59 0H30v-248h44l77 211c21-75 51-140 76-211h43V0h-30" id="aP"/><g id="K"><use transform="matrix(0.06172839506172839,0,0,0.06172839506172839,0,0)" xlink:href="#aP"/><use transform="matrix(0.06172839506172839,0,0,0.06172839506172839,18.456790123456788,0)" xlink:href="#ag"/><use transform="matrix(0.06172839506172839,0,0,0.06172839506172839,30.80246913580247,0)" xlink:href="#ai"/><use transform="matrix(0.06172839506172839,0,0,0.06172839506172839,43.148148148148145,0)" xlink:href="#ae"/><use transform="matrix(0.06172839506172839,0,0,0.06172839506172839,55.49382716049382,0)" xlink:href="#ag"/><use transform="matrix(0.06172839506172839,0,0,0.06172839506172839,67.8395061728395,0)" xlink:href="#Z"/><use transform="matrix(0.06172839506172839,0,0,0.06172839506172839,75.18518518518519,0)" xlink:href="#aH"/><use transform="matrix(0.06172839506172839,0,0,0.06172839506172839,90,0)" xlink:href="#ac"/><use transform="matrix(0.06172839506172839,0,0,0.06172839506172839,102.34567901234568,0)" xlink:href="#ae"/><use transform="matrix(0.06172839506172839,0,0,0.06172839506172839,114.69135802469137,0)" xlink:href="#af"/><use transform="matrix(0.06172839506172839,0,0,0.06172839506172839,119.56790123456791,0)" xlink:href="#ae"/><use transform="matrix(0.06172839506172839,0,0,0.06172839506172839,131.9135802469136,0)" xlink:href="#aa"/><use transform="matrix(0.06172839506172839,0,0,0.06172839506172839,144.25925925925927,0)" xlink:href="#aF"/><use transform="matrix(0.06172839506172839,0,0,0.06172839506172839,160.2469135802469,0)" xlink:href="#aa"/><use transform="matrix(0.06172839506172839,0,0,0.06172839506172839,172.59259259259258,0)" xlink:href="#ak"/><use transform="matrix(0.06172839506172839,0,0,0.06172839506172839,183.7037037037037,0)" xlink:href="#af"/><use transform="matrix(0.06172839506172839,0,0,0.06172839506172839,188.58024691358023,0)" xlink:href="#ai"/><use transform="matrix(0.06172839506172839,0,0,0.06172839506172839,200.9259259259259,0)" xlink:href="#al"/><use transform="matrix(0.06172839506172839,0,0,0.06172839506172839,213.27160493827157,0)" xlink:href="#ag"/><use transform="matrix(0.06172839506172839,0,0,0.06172839506172839,225.61728395061724,0)" xlink:href="#aC"/><use transform="matrix(0.06172839506172839,0,0,0.06172839506172839,232.9629629629629,0)" xlink:href="#aD"/></g><g id="L"><use transform="matrix(0.06172839506172839,0,0,0.06172839506172839,0,0)" xlink:href="#aM"/><use transform="matrix(0.06172839506172839,0,0,0.06172839506172839,11.11111111111111,0)" xlink:href="#aa"/><use transform="matrix(0.06172839506172839,0,0,0.06172839506172839,23.45679012345679,0)" xlink:href="#af"/><use transform="matrix(0.06172839506172839,0,0,0.06172839506172839,28.333333333333336,0)" xlink:href="#ae"/></g><g id="M"><use transform="matrix(0.06172839506172839,0,0,0.06172839506172839,0,0)" xlink:href="#Y"/><use transform="matrix(0.06172839506172839,0,0,0.06172839506172839,12.345679012345679,0)" xlink:href="#ac"/><use transform="matrix(0.06172839506172839,0,0,0.06172839506172839,24.691358024691358,0)" xlink:href="#ad"/><use transform="matrix(0.06172839506172839,0,0,0.06172839506172839,35.80246913580247,0)" xlink:href="#ad"/><use transform="matrix(0.06172839506172839,0,0,0.06172839506172839,46.91358024691358,0)" xlink:href="#aa"/><use transform="matrix(0.06172839506172839,0,0,0.06172839506172839,59.25925925925926,0)" xlink:href="#ad"/><use transform="matrix(0.06172839506172839,0,0,0.06172839506172839,70.37037037037037,0)" xlink:href="#ag"/></g><path fill="#333" d="M27 0v-27h64v-190l-56 39v-29l58-41h29v221h61V0H27" id="aQ"/><path fill="#333" d="M127-220V0H93v-220H8v-28h204v28h-85" id="aR"/><path fill="#333" d="M179-190L93 31C79 59 56 82 12 73V49c39 6 53-20 64-50L1-190h34L92-34l54-156h33" id="aS"/><g id="N"><use transform="matrix(0.06172839506172839,0,0,0.06172839506172839,0,0)" xlink:href="#aa"/><use transform="matrix(0.06172839506172839,0,0,0.06172839506172839,12.345679012345679,0)" xlink:href="#Y"/><use transform="matrix(0.06172839506172839,0,0,0.06172839506172839,24.691358024691358,0)" xlink:href="#ac"/><use transform="matrix(0.06172839506172839,0,0,0.06172839506172839,37.03703703703704,0)" xlink:href="#Z"/><use transform="matrix(0.06172839506172839,0,0,0.06172839506172839,44.382716049382715,0)" xlink:href="#ag"/><use transform="matrix(0.06172839506172839,0,0,0.06172839506172839,56.72839506172839,0)" xlink:href="#ah"/><use transform="matrix(0.06172839506172839,0,0,0.06172839506172839,62.901234567901234,0)" xlink:href="#af"/><use transform="matrix(0.06172839506172839,0,0,0.06172839506172839,67.77777777777777,0)" xlink:href="#aa"/><use transform="matrix(0.06172839506172839,0,0,0.06172839506172839,80.12345679012346,0)" xlink:href="#ai"/><use transform="matrix(0.06172839506172839,0,0,0.06172839506172839,92.46913580246914,0)" xlink:href="#aQ"/><use transform="matrix(0.06172839506172839,0,0,0.06172839506172839,104.81481481481482,0)" xlink:href="#aC"/><use transform="matrix(0.06172839506172839,0,0,0.06172839506172839,112.16049382716051,0)" xlink:href="#Y"/><use transform="matrix(0.06172839506172839,0,0,0.06172839506172839,124.50617283950619,0)" xlink:href="#ag"/><use transform="matrix(0.06172839506172839,0,0,0.06172839506172839,136.85185185185188,0)" xlink:href="#Z"/><use transform="matrix(0.06172839506172839,0,0,0.06172839506172839,144.19753086419755,0)" xlink:href="#ag"/><use transform="matrix(0.06172839506172839,0,0,0.06172839506172839,156.54320987654322,0)" xlink:href="#ax"/><use transform="matrix(0.06172839506172839,0,0,0.06172839506172839,175,0)" xlink:href="#ad"/><use transform="matrix(0.06172839506172839,0,0,0.06172839506172839,186.11111111111111,0)" xlink:href="#aD"/><use transform="matrix(0.06172839506172839,0,0,0.06172839506172839,193.45679012345678,0)" xlink:href="#az"/><use transform="matrix(0.06172839506172839,0,0,0.06172839506172839,199.62962962962962,0)" xlink:href="#Z"/><use transform="matrix(0.06172839506172839,0,0,0.06172839506172839,206.9753086419753,0)" xlink:href="#ac"/><use transform="matrix(0.06172839506172839,0,0,0.06172839506172839,219.32098765432096,0)" xlink:href="#ah"/><use transform="matrix(0.06172839506172839,0,0,0.06172839506172839,225.4938271604938,0)" xlink:href="#aE"/><use transform="matrix(0.06172839506172839,0,0,0.06172839506172839,237.83950617283946,0)" xlink:href="#Z"/><use transform="matrix(0.06172839506172839,0,0,0.06172839506172839,245.18518518518513,0)" xlink:href="#ai"/><use transform="matrix(0.06172839506172839,0,0,0.06172839506172839,257.53086419753083,0)" xlink:href="#aR"/><use transform="matrix(0.06172839506172839,0,0,0.06172839506172839,269.8148148148148,0)" xlink:href="#aS"/><use transform="matrix(0.06172839506172839,0,0,0.06172839506172839,280.92592592592587,0)" xlink:href="#Y"/><use transform="matrix(0.06172839506172839,0,0,0.06172839506172839,293.27160493827154,0)" xlink:href="#ac"/></g><path fill="#333" d="M101-251c82-7 93 87 43 132L82-64C71-53 59-42 53-27h129V0H18c2-99 128-94 128-182 0-28-16-43-45-43s-46 15-49 41l-32-3c6-41 34-60 81-64" id="aT"/><g id="O"><use transform="matrix(0.06172839506172839,0,0,0.06172839506172839,0,0)" xlink:href="#aa"/><use transform="matrix(0.06172839506172839,0,0,0.06172839506172839,12.345679012345679,0)" xlink:href="#Y"/><use transform="matrix(0.06172839506172839,0,0,0.06172839506172839,24.691358024691358,0)" xlink:href="#ac"/><use transform="matrix(0.06172839506172839,0,0,0.06172839506172839,37.03703703703704,0)" xlink:href="#Z"/><use transform="matrix(0.06172839506172839,0,0,0.06172839506172839,44.382716049382715,0)" xlink:href="#ag"/><use transform="matrix(0.06172839506172839,0,0,0.06172839506172839,56.72839506172839,0)" xlink:href="#ah"/><use transform="matrix(0.06172839506172839,0,0,0.06172839506172839,62.901234567901234,0)" xlink:href="#af"/><use transform="matrix(0.06172839506172839,0,0,0.06172839506172839,67.77777777777777,0)" xlink:href="#aa"/><use transform="matrix(0.06172839506172839,0,0,0.06172839506172839,80.12345679012346,0)" xlink:href="#ai"/><use transform="matrix(0.06172839506172839,0,0,0.06172839506172839,92.46913580246914,0)" xlink:href="#aT"/><use transform="matrix(0.06172839506172839,0,0,0.06172839506172839,104.81481481481482,0)" xlink:href="#aC"/><use transform="matrix(0.06172839506172839,0,0,0.06172839506172839,112.16049382716051,0)" xlink:href="#Y"/><use transform="matrix(0.06172839506172839,0,0,0.06172839506172839,124.50617283950619,0)" xlink:href="#ag"/><use transform="matrix(0.06172839506172839,0,0,0.06172839506172839,136.85185185185188,0)" xlink:href="#Z"/><use transform="matrix(0.06172839506172839,0,0,0.06172839506172839,144.19753086419755,0)" xlink:href="#ag"/><use transform="matrix(0.06172839506172839,0,0,0.06172839506172839,156.54320987654322,0)" xlink:href="#ax"/><use transform="matrix(0.06172839506172839,0,0,0.06172839506172839,175,0)" xlink:href="#ad"/><use transform="matrix(0.06172839506172839,0,0,0.06172839506172839,186.11111111111111,0)" xlink:href="#aD"/></g><path fill="#333" d="M126-127c33 6 58 20 58 59 0 88-139 92-164 29-3-8-5-16-6-25l32-3c6 27 21 44 54 44 32 0 52-15 52-46 0-38-36-46-79-43v-28c39 1 72-4 72-42 0-27-17-43-46-43-28 0-47 15-49 41l-32-3c6-42 35-63 81-64 48-1 79 21 79 65 0 36-21 52-52 59" id="aU"/><g id="P"><use transform="matrix(0.06172839506172839,0,0,0.06172839506172839,0,0)" xlink:href="#aa"/><use transform="matrix(0.06172839506172839,0,0,0.06172839506172839,12.345679012345679,0)" xlink:href="#Y"/><use transform="matrix(0.06172839506172839,0,0,0.06172839506172839,24.691358024691358,0)" xlink:href="#ac"/><use transform="matrix(0.06172839506172839,0,0,0.06172839506172839,37.03703703703704,0)" xlink:href="#Z"/><use transform="matrix(0.06172839506172839,0,0,0.06172839506172839,44.382716049382715,0)" xlink:href="#ag"/><use transform="matrix(0.06172839506172839,0,0,0.06172839506172839,56.72839506172839,0)" xlink:href="#ah"/><use transform="matrix(0.06172839506172839,0,0,0.06172839506172839,62.901234567901234,0)" xlink:href="#af"/><use transform="matrix(0.06172839506172839,0,0,0.06172839506172839,67.77777777777777,0)" xlink:href="#aa"/><use transform="matrix(0.06172839506172839,0,0,0.06172839506172839,80.12345679012346,0)" xlink:href="#ai"/><use transform="matrix(0.06172839506172839,0,0,0.06172839506172839,92.46913580246914,0)" xlink:href="#aU"/><use transform="matrix(0.06172839506172839,0,0,0.06172839506172839,104.81481481481482,0)" xlink:href="#aC"/><use transform="matrix(0.06172839506172839,0,0,0.06172839506172839,112.16049382716051,0)" xlink:href="#aD"/></g><path fill="#333" d="M86-200l42-18 12 35-44 11 32 37-32 21-26-44-26 44-32-21 33-37-44-11 12-35 42 18-3-48h38" id="aV"/><path fill="#333" d="M24 0v-54h51V0H24" id="aW"/><g id="Q"><use transform="matrix(0.04938271604938272,0,0,0.04938271604938272,0,0)" xlink:href="#aV"/><use transform="matrix(0.04938271604938272,0,0,0.04938271604938272,6.913580246913581,0)" xlink:href="#aW"/><use transform="matrix(0.04938271604938272,0,0,0.04938271604938272,11.851851851851853,0)" xlink:href="#aW"/><use transform="matrix(0.04938271604938272,0,0,0.04938271604938272,16.790123456790127,0)" xlink:href="#aV"/></g><path fill="#333" d="M23 0v-37h61v-169l-59 37v-38l62-41h46v211h57V0H23" id="aX"/><g id="R"><use transform="matrix(0.04938271604938272,0,0,0.04938271604938272,0,0)" xlink:href="#aX"/><use transform="matrix(0.04938271604938272,0,0,0.04938271604938272,9.876543209876544,0)" xlink:href="#aW"/><use transform="matrix(0.04938271604938272,0,0,0.04938271604938272,14.814814814814817,0)" xlink:href="#aW"/><use transform="matrix(0.04938271604938272,0,0,0.04938271604938272,19.75308641975309,0)" xlink:href="#aX"/></g><path fill="#333" d="M135-150c-39-12-60 13-60 57V0H25l-1-190h47c2 13-1 29 3 40 6-28 27-53 61-41v41" id="aY"/><path fill="#333" d="M135-194c52 0 70 43 70 98 0 56-19 99-73 100-30 1-46-15-58-35L72 0H24l1-261h50v104c11-23 29-37 60-37zM114-30c31 0 40-27 40-66 0-37-7-63-39-63s-41 28-41 65c0 36 8 64 40 64" id="aZ"/><g id="S"><use transform="matrix(0.04938271604938272,0,0,0.04938271604938272,0,0)" xlink:href="#aY"/><use transform="matrix(0.04938271604938272,0,0,0.04938271604938272,6.913580246913581,0)" xlink:href="#at"/><use transform="matrix(0.04938271604938272,0,0,0.04938271604938272,16.790123456790127,0)" xlink:href="#ap"/><use transform="matrix(0.04938271604938272,0,0,0.04938271604938272,26.666666666666668,0)" xlink:href="#at"/><use transform="matrix(0.04938271604938272,0,0,0.04938271604938272,36.543209876543216,0)" xlink:href="#aZ"/><use transform="matrix(0.04938271604938272,0,0,0.04938271604938272,47.35802469135803,0)" xlink:href="#at"/><use transform="matrix(0.04938271604938272,0,0,0.04938271604938272,57.23456790123457,0)" xlink:href="#aY"/></g><path fill="#333" d="M135-194c53 0 70 44 70 98 0 56-19 98-73 100-31 1-45-17-59-34 3 33 2 69 2 105H25l-1-265h48c2 10 0 23 3 31 11-24 29-35 60-35zM114-30c33 0 39-31 40-66 0-38-9-64-40-64-56 0-55 130 0 130" id="ba"/><path fill="#333" d="M133-34C117-15 103 5 69 4 32 3 11-16 11-54c-1-60 55-63 116-61 1-26-3-47-28-47-18 1-26 9-28 27l-52-2c7-38 36-58 82-57s74 22 75 68l1 82c-1 14 12 18 25 15v27c-30 8-71 5-69-32zm-48 3c29 0 43-24 42-57-32 0-66-3-65 30 0 17 8 27 23 27" id="bb"/><path fill="#333" d="M195-6C206 82 75 100 31 46c-4-6-6-13-8-21l49-6c3 16 16 24 34 25 40 0 42-37 40-79-11 22-30 35-61 35-53 0-70-43-70-97 0-56 18-96 73-97 30 0 46 14 59 34l2-30h47zm-90-29c32 0 41-27 41-63 0-35-9-62-40-62-32 0-39 29-40 63 0 36 9 62 39 62" id="bc"/><g id="T"><use transform="matrix(0.04938271604938272,0,0,0.04938271604938272,0,0)" xlink:href="#ba"/><use transform="matrix(0.04938271604938272,0,0,0.04938271604938272,10.814814814814815,0)" xlink:href="#bb"/><use transform="matrix(0.04938271604938272,0,0,0.04938271604938272,20.69135802469136,0)" xlink:href="#bc"/><use transform="matrix(0.04938271604938272,0,0,0.04938271604938272,31.506172839506174,0)" xlink:href="#bb"/><use transform="matrix(0.04938271604938272,0,0,0.04938271604938272,41.38271604938272,0)" xlink:href="#aY"/></g><path fill="#333" d="M101-251c68 0 84 54 84 127C185-50 166 4 99 4S15-52 14-124c-1-75 17-127 87-127zm-1 216c37-5 36-46 36-89s4-89-36-89c-39 0-36 45-36 89 0 43-3 85 36 89" id="bd"/><g id="U"><use transform="matrix(0.04938271604938272,0,0,0.04938271604938272,0,0)" xlink:href="#bd"/><use transform="matrix(0.04938271604938272,0,0,0.04938271604938272,9.876543209876544,0)" xlink:href="#aW"/><use transform="matrix(0.04938271604938272,0,0,0.04938271604938272,14.814814814814817,0)" xlink:href="#aW"/><use transform="matrix(0.04938271604938272,0,0,0.04938271604938272,19.75308641975309,0)" xlink:href="#aX"/></g><path fill="#333" d="M137-138c1-29-70-34-71-4 15 46 118 7 119 86 1 83-164 76-172 9l43-7c4 19 20 25 44 25 33 8 57-30 24-41C81-84 22-81 20-136c-2-80 154-74 161-7" id="be"/><path fill="#333" d="M115-3C79 11 28 4 28-45v-112H4v-33h27l15-45h31v45h36v33H77v99c-1 23 16 31 38 25v30" id="bf"/><g id="V"><use transform="matrix(0.04938271604938272,0,0,0.04938271604938272,0,0)" xlink:href="#at"/><use transform="matrix(0.04938271604938272,0,0,0.04938271604938272,9.876543209876544,0)" xlink:href="#be"/><use transform="matrix(0.04938271604938272,0,0,0.04938271604938272,19.75308641975309,0)" xlink:href="#ao"/><use transform="matrix(0.04938271604938272,0,0,0.04938271604938272,30.567901234567906,0)" xlink:href="#bf"/><use transform="matrix(0.04938271604938272,0,0,0.04938271604938272,36.44444444444445,0)" xlink:href="#aY"/><use transform="matrix(0.04938271604938272,0,0,0.04938271604938272,43.35802469135803,0)" xlink:href="#at"/><use transform="matrix(0.04938271604938272,0,0,0.04938271604938272,53.23456790123457,0)" xlink:href="#bc"/><use transform="matrix(0.04938271604938272,0,0,0.04938271604938272,64.0493827160494,0)" xlink:href="#bb"/><use transform="matrix(0.04938271604938272,0,0,0.04938271604938272,73.92592592592594,0)" xlink:href="#aY"/></g><g id="W"><use transform="matrix(0.04938271604938272,0,0,0.04938271604938272,0,0)" xlink:href="#bd"/><use transform="matrix(0.04938271604938272,0,0,0.04938271604938272,9.876543209876544,0)" xlink:href="#aW"/><use transform="matrix(0.04938271604938272,0,0,0.04938271604938272,14.814814814814817,0)" xlink:href="#aW"/><use transform="matrix(0.04938271604938272,0,0,0.04938271604938272,19.75308641975309,0)" xlink:href="#aV"/></g><use transform="matrix(0.04938271604938272,0,0,0.04938271604938272,0,0)" xlink:href="#bb" id="X"/></defs></g></svg>